<?xml version="1.0" encoding="utf-8" standalone="no"?>
<!DOCTYPE svg PUBLIC "-//W3C//DTD SVG 1.1//EN"
  "http://www.w3.org/Graphics/SVG/1.1/DTD/svg11.dtd">
<!-- Created with matplotlib (https://matplotlib.org/) -->
<svg height="248.518125pt" version="1.1" viewBox="0 0 386.845312 248.518125" width="386.845312pt" xmlns="http://www.w3.org/2000/svg" xmlns:xlink="http://www.w3.org/1999/xlink">
 <metadata>
  <rdf:RDF xmlns:cc="http://creativecommons.org/ns#" xmlns:dc="http://purl.org/dc/elements/1.1/" xmlns:rdf="http://www.w3.org/1999/02/22-rdf-syntax-ns#">
   <cc:Work>
    <dc:type rdf:resource="http://purl.org/dc/dcmitype/StillImage"/>
    <dc:date>2021-02-09T20:14:40.028822</dc:date>
    <dc:format>image/svg+xml</dc:format>
    <dc:creator>
     <cc:Agent>
      <dc:title>Matplotlib v3.3.4, https://matplotlib.org/</dc:title>
     </cc:Agent>
    </dc:creator>
   </cc:Work>
  </rdf:RDF>
 </metadata>
 <defs>
  <style type="text/css">*{stroke-linecap:butt;stroke-linejoin:round;}</style>
 </defs>
 <g id="figure_1">
  <g id="patch_1">
   <path d="M 0 248.518125 
L 386.845312 248.518125 
L 386.845312 0 
L 0 0 
z
" style="fill:none;"/>
  </g>
  <g id="axes_1">
   <g id="patch_2">
    <path d="M 44.845313 224.64 
L 379.645313 224.64 
L 379.645313 7.2 
L 44.845313 7.2 
z
" style="fill:#ffffff;"/>
   </g>
   <g id="matplotlib.axis_1">
    <g id="xtick_1">
     <g id="line2d_1">
      <defs>
       <path d="M 0 0 
L 0 3.5 
" id="ma64b2979cb" style="stroke:#000000;stroke-width:0.8;"/>
      </defs>
      <g>
       <use style="stroke:#000000;stroke-width:0.8;" x="60.063494" xlink:href="#ma64b2979cb" y="224.64"/>
      </g>
     </g>
     <g id="text_1">
      <!-- −1.00 -->
      <g transform="translate(44.740838 239.238437)scale(0.1 -0.1)">
       <defs>
        <path d="M 10.59375 35.5 
L 73.1875 35.5 
L 73.1875 27.203125 
L 10.59375 27.203125 
z
" id="DejaVuSans-8722"/>
        <path d="M 12.40625 8.296875 
L 28.515625 8.296875 
L 28.515625 63.921875 
L 10.984375 60.40625 
L 10.984375 69.390625 
L 28.421875 72.90625 
L 38.28125 72.90625 
L 38.28125 8.296875 
L 54.390625 8.296875 
L 54.390625 0 
L 12.40625 0 
z
" id="DejaVuSans-49"/>
        <path d="M 10.6875 12.40625 
L 21 12.40625 
L 21 0 
L 10.6875 0 
z
" id="DejaVuSans-46"/>
        <path d="M 31.78125 66.40625 
Q 24.171875 66.40625 20.328125 58.90625 
Q 16.5 51.421875 16.5 36.375 
Q 16.5 21.390625 20.328125 13.890625 
Q 24.171875 6.390625 31.78125 6.390625 
Q 39.453125 6.390625 43.28125 13.890625 
Q 47.125 21.390625 47.125 36.375 
Q 47.125 51.421875 43.28125 58.90625 
Q 39.453125 66.40625 31.78125 66.40625 
z
M 31.78125 74.21875 
Q 44.046875 74.21875 50.515625 64.515625 
Q 56.984375 54.828125 56.984375 36.375 
Q 56.984375 17.96875 50.515625 8.265625 
Q 44.046875 -1.421875 31.78125 -1.421875 
Q 19.53125 -1.421875 13.0625 8.265625 
Q 6.59375 17.96875 6.59375 36.375 
Q 6.59375 54.828125 13.0625 64.515625 
Q 19.53125 74.21875 31.78125 74.21875 
z
" id="DejaVuSans-48"/>
       </defs>
       <use xlink:href="#DejaVuSans-8722"/>
       <use x="83.789062" xlink:href="#DejaVuSans-49"/>
       <use x="147.412109" xlink:href="#DejaVuSans-46"/>
       <use x="179.199219" xlink:href="#DejaVuSans-48"/>
       <use x="242.822266" xlink:href="#DejaVuSans-48"/>
      </g>
     </g>
    </g>
    <g id="xtick_2">
     <g id="line2d_2">
      <g>
       <use style="stroke:#000000;stroke-width:0.8;" x="98.108949" xlink:href="#ma64b2979cb" y="224.64"/>
      </g>
     </g>
     <g id="text_2">
      <!-- −0.75 -->
      <g transform="translate(82.786293 239.238437)scale(0.1 -0.1)">
       <defs>
        <path d="M 8.203125 72.90625 
L 55.078125 72.90625 
L 55.078125 68.703125 
L 28.609375 0 
L 18.3125 0 
L 43.21875 64.59375 
L 8.203125 64.59375 
z
" id="DejaVuSans-55"/>
        <path d="M 10.796875 72.90625 
L 49.515625 72.90625 
L 49.515625 64.59375 
L 19.828125 64.59375 
L 19.828125 46.734375 
Q 21.96875 47.46875 24.109375 47.828125 
Q 26.265625 48.1875 28.421875 48.1875 
Q 40.625 48.1875 47.75 41.5 
Q 54.890625 34.8125 54.890625 23.390625 
Q 54.890625 11.625 47.5625 5.09375 
Q 40.234375 -1.421875 26.90625 -1.421875 
Q 22.3125 -1.421875 17.546875 -0.640625 
Q 12.796875 0.140625 7.71875 1.703125 
L 7.71875 11.625 
Q 12.109375 9.234375 16.796875 8.0625 
Q 21.484375 6.890625 26.703125 6.890625 
Q 35.15625 6.890625 40.078125 11.328125 
Q 45.015625 15.765625 45.015625 23.390625 
Q 45.015625 31 40.078125 35.4375 
Q 35.15625 39.890625 26.703125 39.890625 
Q 22.75 39.890625 18.8125 39.015625 
Q 14.890625 38.140625 10.796875 36.28125 
z
" id="DejaVuSans-53"/>
       </defs>
       <use xlink:href="#DejaVuSans-8722"/>
       <use x="83.789062" xlink:href="#DejaVuSans-48"/>
       <use x="147.412109" xlink:href="#DejaVuSans-46"/>
       <use x="179.199219" xlink:href="#DejaVuSans-55"/>
       <use x="242.822266" xlink:href="#DejaVuSans-53"/>
      </g>
     </g>
    </g>
    <g id="xtick_3">
     <g id="line2d_3">
      <g>
       <use style="stroke:#000000;stroke-width:0.8;" x="136.154403" xlink:href="#ma64b2979cb" y="224.64"/>
      </g>
     </g>
     <g id="text_3">
      <!-- −0.50 -->
      <g transform="translate(120.831747 239.238437)scale(0.1 -0.1)">
       <use xlink:href="#DejaVuSans-8722"/>
       <use x="83.789062" xlink:href="#DejaVuSans-48"/>
       <use x="147.412109" xlink:href="#DejaVuSans-46"/>
       <use x="179.199219" xlink:href="#DejaVuSans-53"/>
       <use x="242.822266" xlink:href="#DejaVuSans-48"/>
      </g>
     </g>
    </g>
    <g id="xtick_4">
     <g id="line2d_4">
      <g>
       <use style="stroke:#000000;stroke-width:0.8;" x="174.199858" xlink:href="#ma64b2979cb" y="224.64"/>
      </g>
     </g>
     <g id="text_4">
      <!-- −0.25 -->
      <g transform="translate(158.877202 239.238437)scale(0.1 -0.1)">
       <defs>
        <path d="M 19.1875 8.296875 
L 53.609375 8.296875 
L 53.609375 0 
L 7.328125 0 
L 7.328125 8.296875 
Q 12.9375 14.109375 22.625 23.890625 
Q 32.328125 33.6875 34.8125 36.53125 
Q 39.546875 41.84375 41.421875 45.53125 
Q 43.3125 49.21875 43.3125 52.78125 
Q 43.3125 58.59375 39.234375 62.25 
Q 35.15625 65.921875 28.609375 65.921875 
Q 23.96875 65.921875 18.8125 64.3125 
Q 13.671875 62.703125 7.8125 59.421875 
L 7.8125 69.390625 
Q 13.765625 71.78125 18.9375 73 
Q 24.125 74.21875 28.421875 74.21875 
Q 39.75 74.21875 46.484375 68.546875 
Q 53.21875 62.890625 53.21875 53.421875 
Q 53.21875 48.921875 51.53125 44.890625 
Q 49.859375 40.875 45.40625 35.40625 
Q 44.1875 33.984375 37.640625 27.21875 
Q 31.109375 20.453125 19.1875 8.296875 
z
" id="DejaVuSans-50"/>
       </defs>
       <use xlink:href="#DejaVuSans-8722"/>
       <use x="83.789062" xlink:href="#DejaVuSans-48"/>
       <use x="147.412109" xlink:href="#DejaVuSans-46"/>
       <use x="179.199219" xlink:href="#DejaVuSans-50"/>
       <use x="242.822266" xlink:href="#DejaVuSans-53"/>
      </g>
     </g>
    </g>
    <g id="xtick_5">
     <g id="line2d_5">
      <g>
       <use style="stroke:#000000;stroke-width:0.8;" x="212.245313" xlink:href="#ma64b2979cb" y="224.64"/>
      </g>
     </g>
     <g id="text_5">
      <!-- 0.00 -->
      <g transform="translate(201.1125 239.238437)scale(0.1 -0.1)">
       <use xlink:href="#DejaVuSans-48"/>
       <use x="63.623047" xlink:href="#DejaVuSans-46"/>
       <use x="95.410156" xlink:href="#DejaVuSans-48"/>
       <use x="159.033203" xlink:href="#DejaVuSans-48"/>
      </g>
     </g>
    </g>
    <g id="xtick_6">
     <g id="line2d_6">
      <g>
       <use style="stroke:#000000;stroke-width:0.8;" x="250.290767" xlink:href="#ma64b2979cb" y="224.64"/>
      </g>
     </g>
     <g id="text_6">
      <!-- 0.25 -->
      <g transform="translate(239.157955 239.238437)scale(0.1 -0.1)">
       <use xlink:href="#DejaVuSans-48"/>
       <use x="63.623047" xlink:href="#DejaVuSans-46"/>
       <use x="95.410156" xlink:href="#DejaVuSans-50"/>
       <use x="159.033203" xlink:href="#DejaVuSans-53"/>
      </g>
     </g>
    </g>
    <g id="xtick_7">
     <g id="line2d_7">
      <g>
       <use style="stroke:#000000;stroke-width:0.8;" x="288.336222" xlink:href="#ma64b2979cb" y="224.64"/>
      </g>
     </g>
     <g id="text_7">
      <!-- 0.50 -->
      <g transform="translate(277.203409 239.238437)scale(0.1 -0.1)">
       <use xlink:href="#DejaVuSans-48"/>
       <use x="63.623047" xlink:href="#DejaVuSans-46"/>
       <use x="95.410156" xlink:href="#DejaVuSans-53"/>
       <use x="159.033203" xlink:href="#DejaVuSans-48"/>
      </g>
     </g>
    </g>
    <g id="xtick_8">
     <g id="line2d_8">
      <g>
       <use style="stroke:#000000;stroke-width:0.8;" x="326.381676" xlink:href="#ma64b2979cb" y="224.64"/>
      </g>
     </g>
     <g id="text_8">
      <!-- 0.75 -->
      <g transform="translate(315.248864 239.238437)scale(0.1 -0.1)">
       <use xlink:href="#DejaVuSans-48"/>
       <use x="63.623047" xlink:href="#DejaVuSans-46"/>
       <use x="95.410156" xlink:href="#DejaVuSans-55"/>
       <use x="159.033203" xlink:href="#DejaVuSans-53"/>
      </g>
     </g>
    </g>
    <g id="xtick_9">
     <g id="line2d_9">
      <g>
       <use style="stroke:#000000;stroke-width:0.8;" x="364.427131" xlink:href="#ma64b2979cb" y="224.64"/>
      </g>
     </g>
     <g id="text_9">
      <!-- 1.00 -->
      <g transform="translate(353.294318 239.238437)scale(0.1 -0.1)">
       <use xlink:href="#DejaVuSans-49"/>
       <use x="63.623047" xlink:href="#DejaVuSans-46"/>
       <use x="95.410156" xlink:href="#DejaVuSans-48"/>
       <use x="159.033203" xlink:href="#DejaVuSans-48"/>
      </g>
     </g>
    </g>
   </g>
   <g id="matplotlib.axis_2">
    <g id="ytick_1">
     <g id="line2d_10">
      <defs>
       <path d="M 0 0 
L -3.5 0 
" id="m656dd07f80" style="stroke:#000000;stroke-width:0.8;"/>
      </defs>
      <g>
       <use style="stroke:#000000;stroke-width:0.8;" x="44.845313" xlink:href="#m656dd07f80" y="214.928452"/>
      </g>
     </g>
     <g id="text_10">
      <!-- −1.00 -->
      <g transform="translate(7.2 218.727671)scale(0.1 -0.1)">
       <use xlink:href="#DejaVuSans-8722"/>
       <use x="83.789062" xlink:href="#DejaVuSans-49"/>
       <use x="147.412109" xlink:href="#DejaVuSans-46"/>
       <use x="179.199219" xlink:href="#DejaVuSans-48"/>
       <use x="242.822266" xlink:href="#DejaVuSans-48"/>
      </g>
     </g>
    </g>
    <g id="ytick_2">
     <g id="line2d_11">
      <g>
       <use style="stroke:#000000;stroke-width:0.8;" x="44.845313" xlink:href="#m656dd07f80" y="189.821746"/>
      </g>
     </g>
     <g id="text_11">
      <!-- −0.75 -->
      <g transform="translate(7.2 193.620964)scale(0.1 -0.1)">
       <use xlink:href="#DejaVuSans-8722"/>
       <use x="83.789062" xlink:href="#DejaVuSans-48"/>
       <use x="147.412109" xlink:href="#DejaVuSans-46"/>
       <use x="179.199219" xlink:href="#DejaVuSans-55"/>
       <use x="242.822266" xlink:href="#DejaVuSans-53"/>
      </g>
     </g>
    </g>
    <g id="ytick_3">
     <g id="line2d_12">
      <g>
       <use style="stroke:#000000;stroke-width:0.8;" x="44.845313" xlink:href="#m656dd07f80" y="164.715039"/>
      </g>
     </g>
     <g id="text_12">
      <!-- −0.50 -->
      <g transform="translate(7.2 168.514257)scale(0.1 -0.1)">
       <use xlink:href="#DejaVuSans-8722"/>
       <use x="83.789062" xlink:href="#DejaVuSans-48"/>
       <use x="147.412109" xlink:href="#DejaVuSans-46"/>
       <use x="179.199219" xlink:href="#DejaVuSans-53"/>
       <use x="242.822266" xlink:href="#DejaVuSans-48"/>
      </g>
     </g>
    </g>
    <g id="ytick_4">
     <g id="line2d_13">
      <g>
       <use style="stroke:#000000;stroke-width:0.8;" x="44.845313" xlink:href="#m656dd07f80" y="139.608332"/>
      </g>
     </g>
     <g id="text_13">
      <!-- −0.25 -->
      <g transform="translate(7.2 143.40755)scale(0.1 -0.1)">
       <use xlink:href="#DejaVuSans-8722"/>
       <use x="83.789062" xlink:href="#DejaVuSans-48"/>
       <use x="147.412109" xlink:href="#DejaVuSans-46"/>
       <use x="179.199219" xlink:href="#DejaVuSans-50"/>
       <use x="242.822266" xlink:href="#DejaVuSans-53"/>
      </g>
     </g>
    </g>
    <g id="ytick_5">
     <g id="line2d_14">
      <g>
       <use style="stroke:#000000;stroke-width:0.8;" x="44.845313" xlink:href="#m656dd07f80" y="114.501625"/>
      </g>
     </g>
     <g id="text_14">
      <!-- 0.00 -->
      <g transform="translate(15.579688 118.300844)scale(0.1 -0.1)">
       <use xlink:href="#DejaVuSans-48"/>
       <use x="63.623047" xlink:href="#DejaVuSans-46"/>
       <use x="95.410156" xlink:href="#DejaVuSans-48"/>
       <use x="159.033203" xlink:href="#DejaVuSans-48"/>
      </g>
     </g>
    </g>
    <g id="ytick_6">
     <g id="line2d_15">
      <g>
       <use style="stroke:#000000;stroke-width:0.8;" x="44.845313" xlink:href="#m656dd07f80" y="89.394918"/>
      </g>
     </g>
     <g id="text_15">
      <!-- 0.25 -->
      <g transform="translate(15.579688 93.194137)scale(0.1 -0.1)">
       <use xlink:href="#DejaVuSans-48"/>
       <use x="63.623047" xlink:href="#DejaVuSans-46"/>
       <use x="95.410156" xlink:href="#DejaVuSans-50"/>
       <use x="159.033203" xlink:href="#DejaVuSans-53"/>
      </g>
     </g>
    </g>
    <g id="ytick_7">
     <g id="line2d_16">
      <g>
       <use style="stroke:#000000;stroke-width:0.8;" x="44.845313" xlink:href="#m656dd07f80" y="64.288211"/>
      </g>
     </g>
     <g id="text_16">
      <!-- 0.50 -->
      <g transform="translate(15.579688 68.08743)scale(0.1 -0.1)">
       <use xlink:href="#DejaVuSans-48"/>
       <use x="63.623047" xlink:href="#DejaVuSans-46"/>
       <use x="95.410156" xlink:href="#DejaVuSans-53"/>
       <use x="159.033203" xlink:href="#DejaVuSans-48"/>
      </g>
     </g>
    </g>
    <g id="ytick_8">
     <g id="line2d_17">
      <g>
       <use style="stroke:#000000;stroke-width:0.8;" x="44.845313" xlink:href="#m656dd07f80" y="39.181504"/>
      </g>
     </g>
     <g id="text_17">
      <!-- 0.75 -->
      <g transform="translate(15.579688 42.980723)scale(0.1 -0.1)">
       <use xlink:href="#DejaVuSans-48"/>
       <use x="63.623047" xlink:href="#DejaVuSans-46"/>
       <use x="95.410156" xlink:href="#DejaVuSans-55"/>
       <use x="159.033203" xlink:href="#DejaVuSans-53"/>
      </g>
     </g>
    </g>
    <g id="ytick_9">
     <g id="line2d_18">
      <g>
       <use style="stroke:#000000;stroke-width:0.8;" x="44.845313" xlink:href="#m656dd07f80" y="14.074797"/>
      </g>
     </g>
     <g id="text_18">
      <!-- 1.00 -->
      <g transform="translate(15.579688 17.874016)scale(0.1 -0.1)">
       <use xlink:href="#DejaVuSans-49"/>
       <use x="63.623047" xlink:href="#DejaVuSans-46"/>
       <use x="95.410156" xlink:href="#DejaVuSans-48"/>
       <use x="159.033203" xlink:href="#DejaVuSans-48"/>
      </g>
     </g>
    </g>
   </g>
   <g id="line2d_19">
    <defs>
     <path d="M 0 3 
C 0.795609 3 1.55874 2.683901 2.12132 2.12132 
C 2.683901 1.55874 3 0.795609 3 0 
C 3 -0.795609 2.683901 -1.55874 2.12132 -2.12132 
C 1.55874 -2.683901 0.795609 -3 0 -3 
C -0.795609 -3 -1.55874 -2.683901 -2.12132 -2.12132 
C -2.683901 -1.55874 -3 -0.795609 -3 0 
C -3 0.795609 -2.683901 1.55874 -2.12132 2.12132 
C -1.55874 2.683901 -0.795609 3 0 3 
z
" id="m5651856519" style="stroke:#ff0000;"/>
    </defs>
    <g clip-path="url(#pc7f912cb5b)">
     <use style="fill:#ff0000;stroke:#ff0000;" x="60.063494" xlink:href="#m5651856519" y="104.697254"/>
     <use style="fill:#ff0000;stroke:#ff0000;" x="66.274997" xlink:href="#m5651856519" y="71.280054"/>
     <use style="fill:#ff0000;stroke:#ff0000;" x="72.4865" xlink:href="#m5651856519" y="93.861225"/>
     <use style="fill:#ff0000;stroke:#ff0000;" x="78.698003" xlink:href="#m5651856519" y="105.486673"/>
     <use style="fill:#ff0000;stroke:#ff0000;" x="84.909505" xlink:href="#m5651856519" y="129.835837"/>
     <use style="fill:#ff0000;stroke:#ff0000;" x="91.121008" xlink:href="#m5651856519" y="85.198259"/>
     <use style="fill:#ff0000;stroke:#ff0000;" x="97.332511" xlink:href="#m5651856519" y="127.037462"/>
     <use style="fill:#ff0000;stroke:#ff0000;" x="103.544014" xlink:href="#m5651856519" y="35.812585"/>
     <use style="fill:#ff0000;stroke:#ff0000;" x="109.755517" xlink:href="#m5651856519" y="21.373264"/>
     <use style="fill:#ff0000;stroke:#ff0000;" x="115.967019" xlink:href="#m5651856519" y="137.912822"/>
     <use style="fill:#ff0000;stroke:#ff0000;" x="122.178522" xlink:href="#m5651856519" y="55.907584"/>
     <use style="fill:#ff0000;stroke:#ff0000;" x="128.390025" xlink:href="#m5651856519" y="108.697974"/>
     <use style="fill:#ff0000;stroke:#ff0000;" x="134.601528" xlink:href="#m5651856519" y="100.834626"/>
     <use style="fill:#ff0000;stroke:#ff0000;" x="140.81303" xlink:href="#m5651856519" y="29.018984"/>
     <use style="fill:#ff0000;stroke:#ff0000;" x="147.024533" xlink:href="#m5651856519" y="200.6606"/>
     <use style="fill:#ff0000;stroke:#ff0000;" x="153.236036" xlink:href="#m5651856519" y="197.428214"/>
     <use style="fill:#ff0000;stroke:#ff0000;" x="159.447539" xlink:href="#m5651856519" y="210.867513"/>
     <use style="fill:#ff0000;stroke:#ff0000;" x="165.659042" xlink:href="#m5651856519" y="47.693713"/>
     <use style="fill:#ff0000;stroke:#ff0000;" x="171.870544" xlink:href="#m5651856519" y="58.632825"/>
     <use style="fill:#ff0000;stroke:#ff0000;" x="178.082047" xlink:href="#m5651856519" y="40.183332"/>
     <use style="fill:#ff0000;stroke:#ff0000;" x="184.29355" xlink:href="#m5651856519" y="18.369381"/>
     <use style="fill:#ff0000;stroke:#ff0000;" x="190.505053" xlink:href="#m5651856519" y="54.414534"/>
     <use style="fill:#ff0000;stroke:#ff0000;" x="196.716556" xlink:href="#m5651856519" y="122.238636"/>
     <use style="fill:#ff0000;stroke:#ff0000;" x="202.928058" xlink:href="#m5651856519" y="58.156314"/>
     <use style="fill:#ff0000;stroke:#ff0000;" x="209.139561" xlink:href="#m5651856519" y="191.172602"/>
     <use style="fill:#ff0000;stroke:#ff0000;" x="215.351064" xlink:href="#m5651856519" y="86.397976"/>
     <use style="fill:#ff0000;stroke:#ff0000;" x="221.562567" xlink:href="#m5651856519" y="186.135421"/>
     <use style="fill:#ff0000;stroke:#ff0000;" x="227.774069" xlink:href="#m5651856519" y="25.188247"/>
     <use style="fill:#ff0000;stroke:#ff0000;" x="233.985572" xlink:href="#m5651856519" y="110.113309"/>
     <use style="fill:#ff0000;stroke:#ff0000;" x="240.197075" xlink:href="#m5651856519" y="131.642086"/>
     <use style="fill:#ff0000;stroke:#ff0000;" x="246.408578" xlink:href="#m5651856519" y="161.791491"/>
     <use style="fill:#ff0000;stroke:#ff0000;" x="252.620081" xlink:href="#m5651856519" y="59.420786"/>
     <use style="fill:#ff0000;stroke:#ff0000;" x="258.831583" xlink:href="#m5651856519" y="123.308991"/>
     <use style="fill:#ff0000;stroke:#ff0000;" x="265.043086" xlink:href="#m5651856519" y="100.756416"/>
     <use style="fill:#ff0000;stroke:#ff0000;" x="271.254589" xlink:href="#m5651856519" y="211.154452"/>
     <use style="fill:#ff0000;stroke:#ff0000;" x="277.466092" xlink:href="#m5651856519" y="90.874105"/>
     <use style="fill:#ff0000;stroke:#ff0000;" x="283.677595" xlink:href="#m5651856519" y="91.986789"/>
     <use style="fill:#ff0000;stroke:#ff0000;" x="289.889097" xlink:href="#m5651856519" y="91.015004"/>
     <use style="fill:#ff0000;stroke:#ff0000;" x="296.1006" xlink:href="#m5651856519" y="25.373201"/>
     <use style="fill:#ff0000;stroke:#ff0000;" x="302.312103" xlink:href="#m5651856519" y="77.982353"/>
     <use style="fill:#ff0000;stroke:#ff0000;" x="308.523606" xlink:href="#m5651856519" y="142.719976"/>
     <use style="fill:#ff0000;stroke:#ff0000;" x="314.735108" xlink:href="#m5651856519" y="127.148987"/>
     <use style="fill:#ff0000;stroke:#ff0000;" x="320.946611" xlink:href="#m5651856519" y="74.806677"/>
     <use style="fill:#ff0000;stroke:#ff0000;" x="327.158114" xlink:href="#m5651856519" y="202.831946"/>
     <use style="fill:#ff0000;stroke:#ff0000;" x="333.369617" xlink:href="#m5651856519" y="81.00592"/>
     <use style="fill:#ff0000;stroke:#ff0000;" x="339.58112" xlink:href="#m5651856519" y="80.228385"/>
     <use style="fill:#ff0000;stroke:#ff0000;" x="345.792622" xlink:href="#m5651856519" y="172.672346"/>
     <use style="fill:#ff0000;stroke:#ff0000;" x="352.004125" xlink:href="#m5651856519" y="189.033134"/>
     <use style="fill:#ff0000;stroke:#ff0000;" x="358.215628" xlink:href="#m5651856519" y="151.573515"/>
     <use style="fill:#ff0000;stroke:#ff0000;" x="364.427131" xlink:href="#m5651856519" y="141.875815"/>
    </g>
   </g>
   <g id="line2d_20">
    <path clip-path="url(#pc7f912cb5b)" d="M 60.063494 90.69406 
L 66.274997 89.664177 
L 72.4865 88.634825 
L 78.698003 87.552734 
L 84.909505 85.818034 
L 91.121008 83.022535 
L 97.332511 76.608449 
L 103.544014 70.034399 
L 109.755517 67.454381 
L 115.967019 71.14157 
L 122.178522 75.220803 
L 128.390025 79.311924 
L 134.601528 83.418332 
L 140.81303 87.125883 
L 147.024533 109.510972 
L 153.236036 188.69967 
L 159.447539 210.905924 
L 165.659042 54.976674 
L 171.870544 38.461747 
L 178.082047 28.846982 
L 184.29355 19.221706 
L 190.505053 52.304566 
L 196.716556 82.153199 
L 202.928058 73.875144 
L 209.139561 147.690498 
L 215.351064 142.902899 
L 221.562567 138.969597 
L 227.774069 17.417704 
L 233.985572 96.600101 
L 240.197075 113.946455 
L 246.408578 107.771587 
L 252.620081 102.328082 
L 258.831583 103.026913 
L 265.043086 118.17067 
L 271.254589 168.29033 
L 277.466092 100.74116 
L 283.677595 80.160417 
L 289.889097 58.415361 
L 296.1006 41.14864 
L 302.312103 61.204464 
L 308.523606 109.585326 
L 314.735108 117.082119 
L 320.946611 120.115979 
L 327.158114 124.007671 
L 333.369617 128.364024 
L 339.58112 133.009034 
L 345.792622 137.829415 
L 352.004125 142.654281 
L 358.215628 147.459164 
L 364.427131 152.159258 
" style="fill:none;stroke:#1f77b4;stroke-dasharray:5.55,2.4;stroke-dashoffset:0;stroke-width:1.5;"/>
   </g>
   <g id="line2d_21">
    <path clip-path="url(#pc7f912cb5b)" d="M 60.063494 88.488906 
L 66.274997 90.550427 
L 72.4865 92.639846 
L 78.698003 94.731677 
L 84.909505 96.742424 
L 91.121008 86.309148 
L 97.332511 68.350824 
L 103.544014 61.163999 
L 109.755517 66.926627 
L 115.967019 73.052555 
L 122.178522 79.196713 
L 128.390025 85.258582 
L 134.601528 69.267452 
L 140.81303 49.286107 
L 147.024533 197.202217 
L 153.236036 200.793874 
L 159.447539 209.779035 
L 165.659042 44.790202 
L 171.870544 37.990686 
L 178.082047 29.09602 
L 184.29355 17.331854 
L 190.505053 45.465088 
L 196.716556 109.379282 
L 202.928058 49.064557 
L 209.139561 172.959109 
L 215.351064 129.423197 
L 221.562567 138.179586 
L 227.774069 17.083636 
L 233.985572 93.500526 
L 240.197075 125.413252 
L 246.408578 125.383452 
L 252.620081 82.790495 
L 258.831583 84.570287 
L 265.043086 91.417886 
L 271.254589 197.641924 
L 277.466092 96.216945 
L 283.677595 85.416515 
L 289.889097 62.968361 
L 296.1006 35.810422 
L 302.312103 80.200908 
L 308.523606 115.247976 
L 314.735108 115.144676 
L 320.946611 119.660579 
L 327.158114 124.526168 
L 333.369617 129.675238 
L 339.58112 135.20869 
L 345.792622 140.882471 
L 352.004125 146.016603 
L 358.215628 150.27617 
L 364.427131 154.510899 
" style="fill:none;stroke:#ff7f0e;stroke-dasharray:5.55,2.4;stroke-dashoffset:0;stroke-width:1.5;"/>
   </g>
   <g id="line2d_22">
    <path clip-path="url(#pc7f912cb5b)" d="M 60.063494 87.306555 
L 66.274997 91.478068 
L 72.4865 96.207091 
L 78.698003 101.129757 
L 84.909505 106.011849 
L 91.121008 106.898189 
L 97.332511 104.789353 
L 103.544014 62.130011 
L 109.755517 42.743249 
L 115.967019 57.091225 
L 122.178522 70.81368 
L 128.390025 84.212147 
L 134.601528 97.45548 
L 140.81303 89.341242 
L 147.024533 19.072866 
L 153.236036 195.719568 
L 159.447539 200.338766 
L 165.659042 120.579499 
L 171.870544 46.524809 
L 178.082047 41.141876 
L 184.29355 24.566904 
L 190.505053 41.914914 
L 196.716556 115.811739 
L 202.928058 58.970883 
L 209.139561 178.774649 
L 215.351064 82.025412 
L 221.562567 173.409434 
L 227.774069 23.312833 
L 233.985572 105.376167 
L 240.197075 126.378058 
L 246.408578 152.289897 
L 252.620081 64.603147 
L 258.831583 87.354152 
L 265.043086 105.057883 
L 271.254589 204.685108 
L 277.466092 93.782313 
L 283.677595 87.664363 
L 289.889097 84.877169 
L 296.1006 29.188873 
L 302.312103 58.869608 
L 308.523606 111.918017 
L 314.735108 114.806241 
L 320.946611 117.4221 
L 327.158114 122.146453 
L 333.369617 126.884697 
L 339.58112 131.677671 
L 345.792622 137.72979 
L 352.004125 143.967549 
L 358.215628 150.049445 
L 364.427131 154.47762 
" style="fill:none;stroke:#2ca02c;stroke-dasharray:5.55,2.4;stroke-dashoffset:0;stroke-width:1.5;"/>
   </g>
   <g id="line2d_23">
    <path clip-path="url(#pc7f912cb5b)" d="M 60.063494 89.643252 
L 66.274997 95.62795 
L 72.4865 102.92228 
L 78.698003 110.236824 
L 84.909505 109.790679 
L 91.121008 107.207046 
L 97.332511 53.422464 
L 103.544014 34.361048 
L 109.755517 60.929609 
L 115.967019 78.333222 
L 122.178522 91.215211 
L 128.390025 103.576557 
L 134.601528 95.219829 
L 140.81303 23.20781 
L 147.024533 203.860992 
L 153.236036 201.955846 
L 159.447539 210.754337 
L 165.659042 45.790003 
L 171.870544 54.055916 
L 178.082047 38.423245 
L 184.29355 23.710734 
L 190.505053 55.515208 
L 196.716556 122.870639 
L 202.928058 58.05143 
L 209.139561 187.208335 
L 215.351064 87.232396 
L 221.562567 183.298294 
L 227.774069 23.119297 
L 233.985572 109.292491 
L 240.197075 129.905098 
L 246.408578 161.419199 
L 252.620081 58.88295 
L 258.831583 109.410641 
L 265.043086 107.365125 
L 271.254589 210.247546 
L 277.466092 91.262465 
L 283.677595 90.932136 
L 289.889097 89.629826 
L 296.1006 24.129478 
L 302.312103 65.331764 
L 308.523606 131.503741 
L 314.735108 140.178735 
L 320.946611 113.802053 
L 327.158114 117.812062 
L 333.369617 121.945444 
L 339.58112 125.194595 
L 345.792622 135.163592 
L 352.004125 147.149339 
L 358.215628 154.598218 
L 364.427131 157.848708 
" style="fill:none;stroke:#d62728;stroke-dasharray:5.55,2.4;stroke-dashoffset:0;stroke-width:1.5;"/>
   </g>
   <g id="line2d_24">
    <path clip-path="url(#pc7f912cb5b)" d="M 60.063494 91.111346 
L 66.274997 93.438026 
L 72.4865 99.405991 
L 78.698003 109.516882 
L 84.909505 115.119799 
L 91.121008 112.014891 
L 97.332511 109.31237 
L 103.544014 33.978423 
L 109.755517 47.481189 
L 115.967019 90.697442 
L 122.178522 95.664531 
L 128.390025 100.565811 
L 134.601528 98.117681 
L 140.81303 26.59524 
L 147.024533 201.104818 
L 153.236036 198.368457 
L 159.447539 213.702048 
L 165.659042 45.879517 
L 171.870544 55.945409 
L 178.082047 40.934375 
L 184.29355 23.01331 
L 190.505053 58.127074 
L 196.716556 124.148559 
L 202.928058 62.300124 
L 209.139561 192.058349 
L 215.351064 85.509655 
L 221.562567 185.826656 
L 227.774069 24.268309 
L 233.985572 113.029556 
L 240.197075 131.941722 
L 246.408578 161.75453 
L 252.620081 57.188604 
L 258.831583 123.311032 
L 265.043086 100.710135 
L 271.254589 211.337244 
L 277.466092 90.546872 
L 283.677595 93.780506 
L 289.889097 90.465464 
L 296.1006 24.730918 
L 302.312103 78.752816 
L 308.523606 139.131551 
L 314.735108 117.517974 
L 320.946611 108.878063 
L 327.158114 121.324498 
L 333.369617 109.335767 
L 339.58112 129.681755 
L 345.792622 166.958496 
L 352.004125 155.302636 
L 358.215628 142.639899 
L 364.427131 130.775697 
" style="fill:none;stroke:#9467bd;stroke-dasharray:5.55,2.4;stroke-dashoffset:0;stroke-width:1.5;"/>
   </g>
   <g id="line2d_25">
    <path clip-path="url(#pc7f912cb5b)" d="M 60.063494 95.681444 
L 66.274997 92.606304 
L 72.4865 90.934832 
L 78.698003 100.558218 
L 84.909505 112.417821 
L 91.121008 111.033621 
L 97.332511 110.345396 
L 103.544014 42.958006 
L 109.755517 22.184699 
L 115.967019 109.015924 
L 122.178522 94.889614 
L 128.390025 94.66143 
L 134.601528 95.059428 
L 140.81303 28.556085 
L 147.024533 202.983004 
L 153.236036 200.074847 
L 159.447539 214.756364 
L 165.659042 44.889843 
L 171.870544 56.926762 
L 178.082047 46.935011 
L 184.29355 26.870777 
L 190.505053 61.715283 
L 196.716556 126.512392 
L 202.928058 63.919222 
L 209.139561 191.462135 
L 215.351064 86.277677 
L 221.562567 186.240474 
L 227.774069 25.124479 
L 233.985572 111.696631 
L 240.197075 132.149711 
L 246.408578 161.52538 
L 252.620081 59.915034 
L 258.831583 122.030304 
L 265.043086 98.538715 
L 271.254589 211.126517 
L 277.466092 89.808861 
L 283.677595 90.179691 
L 289.889097 90.779111 
L 296.1006 25.046932 
L 302.312103 77.851617 
L 308.523606 141.468126 
L 314.735108 131.40847 
L 320.946611 74.384742 
L 327.158114 184.974282 
L 333.369617 86.488435 
L 339.58112 78.902898 
L 345.792622 149.690084 
L 352.004125 174.44183 
L 358.215628 156.446624 
L 364.427131 139.630408 
" style="fill:none;stroke:#8c564b;stroke-dasharray:5.55,2.4;stroke-dashoffset:0;stroke-width:1.5;"/>
   </g>
   <g id="line2d_26">
    <path clip-path="url(#pc7f912cb5b)" d="M 60.063494 90.027855 
L 66.274997 81.340786 
L 72.4865 83.541038 
L 78.698003 93.664095 
L 84.909505 104.062 
L 91.121008 103.337274 
L 97.332511 109.499881 
L 103.544014 32.018692 
L 109.755517 19.2149 
L 115.967019 95.335755 
L 122.178522 86.475266 
L 128.390025 104.071423 
L 134.601528 100.735389 
L 140.81303 28.353965 
L 147.024533 199.096553 
L 153.236036 202.286813 
L 159.447539 213.134878 
L 165.659042 43.706669 
L 171.870544 52.134147 
L 178.082047 31.315132 
L 184.29355 25.563701 
L 190.505053 65.704042 
L 196.716556 116.799016 
L 202.928058 57.162368 
L 209.139561 189.869543 
L 215.351064 84.104198 
L 221.562567 189.477676 
L 227.774069 20.473544 
L 233.985572 107.134499 
L 240.197075 128.224265 
L 246.408578 160.697469 
L 252.620081 51.205979 
L 258.831583 119.703453 
L 265.043086 97.893691 
L 271.254589 193.690197 
L 277.466092 101.996845 
L 283.677595 82.941756 
L 289.889097 83.959156 
L 296.1006 36.493976 
L 302.312103 49.655138 
L 308.523606 125.702088 
L 314.735108 143.877306 
L 320.946611 123.93124 
L 327.158114 92.404089 
L 333.369617 138.209782 
L 339.58112 75.446435 
L 345.792622 38.604983 
L 352.004125 120.114744 
L 358.215628 161.534622 
L 364.427131 147.395974 
" style="fill:none;stroke:#e377c2;stroke-dasharray:5.55,2.4;stroke-dashoffset:0;stroke-width:1.5;"/>
   </g>
   <g id="patch_3">
    <path d="M 44.845313 224.64 
L 44.845313 7.2 
" style="fill:none;stroke:#000000;stroke-linecap:square;stroke-linejoin:miter;stroke-width:0.8;"/>
   </g>
   <g id="patch_4">
    <path d="M 379.645313 224.64 
L 379.645313 7.2 
" style="fill:none;stroke:#000000;stroke-linecap:square;stroke-linejoin:miter;stroke-width:0.8;"/>
   </g>
   <g id="patch_5">
    <path d="M 44.845312 224.64 
L 379.645313 224.64 
" style="fill:none;stroke:#000000;stroke-linecap:square;stroke-linejoin:miter;stroke-width:0.8;"/>
   </g>
   <g id="patch_6">
    <path d="M 44.845312 7.2 
L 379.645313 7.2 
" style="fill:none;stroke:#000000;stroke-linecap:square;stroke-linejoin:miter;stroke-width:0.8;"/>
   </g>
   <g id="legend_1">
    <g id="patch_7">
     <path d="M 51.845313 219.64 
L 145.90625 219.64 
Q 147.90625 219.64 147.90625 217.64 
L 147.90625 101.215 
Q 147.90625 99.215 145.90625 99.215 
L 51.845313 99.215 
Q 49.845313 99.215 49.845313 101.215 
L 49.845313 217.64 
Q 49.845313 219.64 51.845313 219.64 
z
" style="fill:#ffffff;opacity:0.8;stroke:#cccccc;stroke-linejoin:miter;"/>
    </g>
    <g id="line2d_27"/>
    <g id="line2d_28">
     <g>
      <use style="fill:#ff0000;stroke:#ff0000;" x="63.845313" xlink:href="#m5651856519" y="107.313437"/>
     </g>
    </g>
    <g id="text_19">
     <!-- sample data -->
     <g transform="translate(81.845313 110.813437)scale(0.1 -0.1)">
      <defs>
       <path d="M 44.28125 53.078125 
L 44.28125 44.578125 
Q 40.484375 46.53125 36.375 47.5 
Q 32.28125 48.484375 27.875 48.484375 
Q 21.1875 48.484375 17.84375 46.4375 
Q 14.5 44.390625 14.5 40.28125 
Q 14.5 37.15625 16.890625 35.375 
Q 19.28125 33.59375 26.515625 31.984375 
L 29.59375 31.296875 
Q 39.15625 29.25 43.1875 25.515625 
Q 47.21875 21.78125 47.21875 15.09375 
Q 47.21875 7.46875 41.1875 3.015625 
Q 35.15625 -1.421875 24.609375 -1.421875 
Q 20.21875 -1.421875 15.453125 -0.5625 
Q 10.6875 0.296875 5.421875 2 
L 5.421875 11.28125 
Q 10.40625 8.6875 15.234375 7.390625 
Q 20.0625 6.109375 24.8125 6.109375 
Q 31.15625 6.109375 34.5625 8.28125 
Q 37.984375 10.453125 37.984375 14.40625 
Q 37.984375 18.0625 35.515625 20.015625 
Q 33.0625 21.96875 24.703125 23.78125 
L 21.578125 24.515625 
Q 13.234375 26.265625 9.515625 29.90625 
Q 5.8125 33.546875 5.8125 39.890625 
Q 5.8125 47.609375 11.28125 51.796875 
Q 16.75 56 26.8125 56 
Q 31.78125 56 36.171875 55.265625 
Q 40.578125 54.546875 44.28125 53.078125 
z
" id="DejaVuSans-115"/>
       <path d="M 34.28125 27.484375 
Q 23.390625 27.484375 19.1875 25 
Q 14.984375 22.515625 14.984375 16.5 
Q 14.984375 11.71875 18.140625 8.90625 
Q 21.296875 6.109375 26.703125 6.109375 
Q 34.1875 6.109375 38.703125 11.40625 
Q 43.21875 16.703125 43.21875 25.484375 
L 43.21875 27.484375 
z
M 52.203125 31.203125 
L 52.203125 0 
L 43.21875 0 
L 43.21875 8.296875 
Q 40.140625 3.328125 35.546875 0.953125 
Q 30.953125 -1.421875 24.3125 -1.421875 
Q 15.921875 -1.421875 10.953125 3.296875 
Q 6 8.015625 6 15.921875 
Q 6 25.140625 12.171875 29.828125 
Q 18.359375 34.515625 30.609375 34.515625 
L 43.21875 34.515625 
L 43.21875 35.40625 
Q 43.21875 41.609375 39.140625 45 
Q 35.0625 48.390625 27.6875 48.390625 
Q 23 48.390625 18.546875 47.265625 
Q 14.109375 46.140625 10.015625 43.890625 
L 10.015625 52.203125 
Q 14.9375 54.109375 19.578125 55.046875 
Q 24.21875 56 28.609375 56 
Q 40.484375 56 46.34375 49.84375 
Q 52.203125 43.703125 52.203125 31.203125 
z
" id="DejaVuSans-97"/>
       <path d="M 52 44.1875 
Q 55.375 50.25 60.0625 53.125 
Q 64.75 56 71.09375 56 
Q 79.640625 56 84.28125 50.015625 
Q 88.921875 44.046875 88.921875 33.015625 
L 88.921875 0 
L 79.890625 0 
L 79.890625 32.71875 
Q 79.890625 40.578125 77.09375 44.375 
Q 74.3125 48.1875 68.609375 48.1875 
Q 61.625 48.1875 57.5625 43.546875 
Q 53.515625 38.921875 53.515625 30.90625 
L 53.515625 0 
L 44.484375 0 
L 44.484375 32.71875 
Q 44.484375 40.625 41.703125 44.40625 
Q 38.921875 48.1875 33.109375 48.1875 
Q 26.21875 48.1875 22.15625 43.53125 
Q 18.109375 38.875 18.109375 30.90625 
L 18.109375 0 
L 9.078125 0 
L 9.078125 54.6875 
L 18.109375 54.6875 
L 18.109375 46.1875 
Q 21.1875 51.21875 25.484375 53.609375 
Q 29.78125 56 35.6875 56 
Q 41.65625 56 45.828125 52.96875 
Q 50 49.953125 52 44.1875 
z
" id="DejaVuSans-109"/>
       <path d="M 18.109375 8.203125 
L 18.109375 -20.796875 
L 9.078125 -20.796875 
L 9.078125 54.6875 
L 18.109375 54.6875 
L 18.109375 46.390625 
Q 20.953125 51.265625 25.265625 53.625 
Q 29.59375 56 35.59375 56 
Q 45.5625 56 51.78125 48.09375 
Q 58.015625 40.1875 58.015625 27.296875 
Q 58.015625 14.40625 51.78125 6.484375 
Q 45.5625 -1.421875 35.59375 -1.421875 
Q 29.59375 -1.421875 25.265625 0.953125 
Q 20.953125 3.328125 18.109375 8.203125 
z
M 48.6875 27.296875 
Q 48.6875 37.203125 44.609375 42.84375 
Q 40.53125 48.484375 33.40625 48.484375 
Q 26.265625 48.484375 22.1875 42.84375 
Q 18.109375 37.203125 18.109375 27.296875 
Q 18.109375 17.390625 22.1875 11.75 
Q 26.265625 6.109375 33.40625 6.109375 
Q 40.53125 6.109375 44.609375 11.75 
Q 48.6875 17.390625 48.6875 27.296875 
z
" id="DejaVuSans-112"/>
       <path d="M 9.421875 75.984375 
L 18.40625 75.984375 
L 18.40625 0 
L 9.421875 0 
z
" id="DejaVuSans-108"/>
       <path d="M 56.203125 29.59375 
L 56.203125 25.203125 
L 14.890625 25.203125 
Q 15.484375 15.921875 20.484375 11.0625 
Q 25.484375 6.203125 34.421875 6.203125 
Q 39.59375 6.203125 44.453125 7.46875 
Q 49.3125 8.734375 54.109375 11.28125 
L 54.109375 2.78125 
Q 49.265625 0.734375 44.1875 -0.34375 
Q 39.109375 -1.421875 33.890625 -1.421875 
Q 20.796875 -1.421875 13.15625 6.1875 
Q 5.515625 13.8125 5.515625 26.8125 
Q 5.515625 40.234375 12.765625 48.109375 
Q 20.015625 56 32.328125 56 
Q 43.359375 56 49.78125 48.890625 
Q 56.203125 41.796875 56.203125 29.59375 
z
M 47.21875 32.234375 
Q 47.125 39.59375 43.09375 43.984375 
Q 39.0625 48.390625 32.421875 48.390625 
Q 24.90625 48.390625 20.390625 44.140625 
Q 15.875 39.890625 15.1875 32.171875 
z
" id="DejaVuSans-101"/>
       <path id="DejaVuSans-32"/>
       <path d="M 45.40625 46.390625 
L 45.40625 75.984375 
L 54.390625 75.984375 
L 54.390625 0 
L 45.40625 0 
L 45.40625 8.203125 
Q 42.578125 3.328125 38.25 0.953125 
Q 33.9375 -1.421875 27.875 -1.421875 
Q 17.96875 -1.421875 11.734375 6.484375 
Q 5.515625 14.40625 5.515625 27.296875 
Q 5.515625 40.1875 11.734375 48.09375 
Q 17.96875 56 27.875 56 
Q 33.9375 56 38.25 53.625 
Q 42.578125 51.265625 45.40625 46.390625 
z
M 14.796875 27.296875 
Q 14.796875 17.390625 18.875 11.75 
Q 22.953125 6.109375 30.078125 6.109375 
Q 37.203125 6.109375 41.296875 11.75 
Q 45.40625 17.390625 45.40625 27.296875 
Q 45.40625 37.203125 41.296875 42.84375 
Q 37.203125 48.484375 30.078125 48.484375 
Q 22.953125 48.484375 18.875 42.84375 
Q 14.796875 37.203125 14.796875 27.296875 
z
" id="DejaVuSans-100"/>
       <path d="M 18.3125 70.21875 
L 18.3125 54.6875 
L 36.8125 54.6875 
L 36.8125 47.703125 
L 18.3125 47.703125 
L 18.3125 18.015625 
Q 18.3125 11.328125 20.140625 9.421875 
Q 21.96875 7.515625 27.59375 7.515625 
L 36.8125 7.515625 
L 36.8125 0 
L 27.59375 0 
Q 17.1875 0 13.234375 3.875 
Q 9.28125 7.765625 9.28125 18.015625 
L 9.28125 47.703125 
L 2.6875 47.703125 
L 2.6875 54.6875 
L 9.28125 54.6875 
L 9.28125 70.21875 
z
" id="DejaVuSans-116"/>
      </defs>
      <use xlink:href="#DejaVuSans-115"/>
      <use x="52.099609" xlink:href="#DejaVuSans-97"/>
      <use x="113.378906" xlink:href="#DejaVuSans-109"/>
      <use x="210.791016" xlink:href="#DejaVuSans-112"/>
      <use x="274.267578" xlink:href="#DejaVuSans-108"/>
      <use x="302.050781" xlink:href="#DejaVuSans-101"/>
      <use x="363.574219" xlink:href="#DejaVuSans-32"/>
      <use x="395.361328" xlink:href="#DejaVuSans-100"/>
      <use x="458.837891" xlink:href="#DejaVuSans-97"/>
      <use x="520.117188" xlink:href="#DejaVuSans-116"/>
      <use x="559.326172" xlink:href="#DejaVuSans-97"/>
     </g>
    </g>
    <g id="line2d_29">
     <path d="M 53.845313 121.991563 
L 73.845313 121.991563 
" style="fill:none;stroke:#1f77b4;stroke-dasharray:5.55,2.4;stroke-dashoffset:0;stroke-width:1.5;"/>
    </g>
    <g id="line2d_30"/>
    <g id="text_20">
     <!-- round=1 -->
     <g transform="translate(81.845313 125.491563)scale(0.1 -0.1)">
      <defs>
       <path d="M 41.109375 46.296875 
Q 39.59375 47.171875 37.8125 47.578125 
Q 36.03125 48 33.890625 48 
Q 26.265625 48 22.1875 43.046875 
Q 18.109375 38.09375 18.109375 28.8125 
L 18.109375 0 
L 9.078125 0 
L 9.078125 54.6875 
L 18.109375 54.6875 
L 18.109375 46.1875 
Q 20.953125 51.171875 25.484375 53.578125 
Q 30.03125 56 36.53125 56 
Q 37.453125 56 38.578125 55.875 
Q 39.703125 55.765625 41.0625 55.515625 
z
" id="DejaVuSans-114"/>
       <path d="M 30.609375 48.390625 
Q 23.390625 48.390625 19.1875 42.75 
Q 14.984375 37.109375 14.984375 27.296875 
Q 14.984375 17.484375 19.15625 11.84375 
Q 23.34375 6.203125 30.609375 6.203125 
Q 37.796875 6.203125 41.984375 11.859375 
Q 46.1875 17.53125 46.1875 27.296875 
Q 46.1875 37.015625 41.984375 42.703125 
Q 37.796875 48.390625 30.609375 48.390625 
z
M 30.609375 56 
Q 42.328125 56 49.015625 48.375 
Q 55.71875 40.765625 55.71875 27.296875 
Q 55.71875 13.875 49.015625 6.21875 
Q 42.328125 -1.421875 30.609375 -1.421875 
Q 18.84375 -1.421875 12.171875 6.21875 
Q 5.515625 13.875 5.515625 27.296875 
Q 5.515625 40.765625 12.171875 48.375 
Q 18.84375 56 30.609375 56 
z
" id="DejaVuSans-111"/>
       <path d="M 8.5 21.578125 
L 8.5 54.6875 
L 17.484375 54.6875 
L 17.484375 21.921875 
Q 17.484375 14.15625 20.5 10.265625 
Q 23.53125 6.390625 29.59375 6.390625 
Q 36.859375 6.390625 41.078125 11.03125 
Q 45.3125 15.671875 45.3125 23.6875 
L 45.3125 54.6875 
L 54.296875 54.6875 
L 54.296875 0 
L 45.3125 0 
L 45.3125 8.40625 
Q 42.046875 3.421875 37.71875 1 
Q 33.40625 -1.421875 27.6875 -1.421875 
Q 18.265625 -1.421875 13.375 4.4375 
Q 8.5 10.296875 8.5 21.578125 
z
M 31.109375 56 
z
" id="DejaVuSans-117"/>
       <path d="M 54.890625 33.015625 
L 54.890625 0 
L 45.90625 0 
L 45.90625 32.71875 
Q 45.90625 40.484375 42.875 44.328125 
Q 39.84375 48.1875 33.796875 48.1875 
Q 26.515625 48.1875 22.3125 43.546875 
Q 18.109375 38.921875 18.109375 30.90625 
L 18.109375 0 
L 9.078125 0 
L 9.078125 54.6875 
L 18.109375 54.6875 
L 18.109375 46.1875 
Q 21.34375 51.125 25.703125 53.5625 
Q 30.078125 56 35.796875 56 
Q 45.21875 56 50.046875 50.171875 
Q 54.890625 44.34375 54.890625 33.015625 
z
" id="DejaVuSans-110"/>
       <path d="M 10.59375 45.40625 
L 73.1875 45.40625 
L 73.1875 37.203125 
L 10.59375 37.203125 
z
M 10.59375 25.484375 
L 73.1875 25.484375 
L 73.1875 17.1875 
L 10.59375 17.1875 
z
" id="DejaVuSans-61"/>
      </defs>
      <use xlink:href="#DejaVuSans-114"/>
      <use x="38.863281" xlink:href="#DejaVuSans-111"/>
      <use x="100.044922" xlink:href="#DejaVuSans-117"/>
      <use x="163.423828" xlink:href="#DejaVuSans-110"/>
      <use x="226.802734" xlink:href="#DejaVuSans-100"/>
      <use x="290.279297" xlink:href="#DejaVuSans-61"/>
      <use x="374.068359" xlink:href="#DejaVuSans-49"/>
     </g>
    </g>
    <g id="line2d_31">
     <path d="M 53.845313 136.669688 
L 73.845313 136.669688 
" style="fill:none;stroke:#ff7f0e;stroke-dasharray:5.55,2.4;stroke-dashoffset:0;stroke-width:1.5;"/>
    </g>
    <g id="line2d_32"/>
    <g id="text_21">
     <!-- round=2 -->
     <g transform="translate(81.845313 140.169688)scale(0.1 -0.1)">
      <use xlink:href="#DejaVuSans-114"/>
      <use x="38.863281" xlink:href="#DejaVuSans-111"/>
      <use x="100.044922" xlink:href="#DejaVuSans-117"/>
      <use x="163.423828" xlink:href="#DejaVuSans-110"/>
      <use x="226.802734" xlink:href="#DejaVuSans-100"/>
      <use x="290.279297" xlink:href="#DejaVuSans-61"/>
      <use x="374.068359" xlink:href="#DejaVuSans-50"/>
     </g>
    </g>
    <g id="line2d_33">
     <path d="M 53.845313 151.347813 
L 73.845313 151.347813 
" style="fill:none;stroke:#2ca02c;stroke-dasharray:5.55,2.4;stroke-dashoffset:0;stroke-width:1.5;"/>
    </g>
    <g id="line2d_34"/>
    <g id="text_22">
     <!-- round=3 -->
     <g transform="translate(81.845313 154.847813)scale(0.1 -0.1)">
      <defs>
       <path d="M 40.578125 39.3125 
Q 47.65625 37.796875 51.625 33 
Q 55.609375 28.21875 55.609375 21.1875 
Q 55.609375 10.40625 48.1875 4.484375 
Q 40.765625 -1.421875 27.09375 -1.421875 
Q 22.515625 -1.421875 17.65625 -0.515625 
Q 12.796875 0.390625 7.625 2.203125 
L 7.625 11.71875 
Q 11.71875 9.328125 16.59375 8.109375 
Q 21.484375 6.890625 26.8125 6.890625 
Q 36.078125 6.890625 40.9375 10.546875 
Q 45.796875 14.203125 45.796875 21.1875 
Q 45.796875 27.640625 41.28125 31.265625 
Q 36.765625 34.90625 28.71875 34.90625 
L 20.21875 34.90625 
L 20.21875 43.015625 
L 29.109375 43.015625 
Q 36.375 43.015625 40.234375 45.921875 
Q 44.09375 48.828125 44.09375 54.296875 
Q 44.09375 59.90625 40.109375 62.90625 
Q 36.140625 65.921875 28.71875 65.921875 
Q 24.65625 65.921875 20.015625 65.03125 
Q 15.375 64.15625 9.8125 62.3125 
L 9.8125 71.09375 
Q 15.4375 72.65625 20.34375 73.4375 
Q 25.25 74.21875 29.59375 74.21875 
Q 40.828125 74.21875 47.359375 69.109375 
Q 53.90625 64.015625 53.90625 55.328125 
Q 53.90625 49.265625 50.4375 45.09375 
Q 46.96875 40.921875 40.578125 39.3125 
z
" id="DejaVuSans-51"/>
      </defs>
      <use xlink:href="#DejaVuSans-114"/>
      <use x="38.863281" xlink:href="#DejaVuSans-111"/>
      <use x="100.044922" xlink:href="#DejaVuSans-117"/>
      <use x="163.423828" xlink:href="#DejaVuSans-110"/>
      <use x="226.802734" xlink:href="#DejaVuSans-100"/>
      <use x="290.279297" xlink:href="#DejaVuSans-61"/>
      <use x="374.068359" xlink:href="#DejaVuSans-51"/>
     </g>
    </g>
    <g id="line2d_35">
     <path d="M 53.845313 166.025937 
L 73.845313 166.025937 
" style="fill:none;stroke:#d62728;stroke-dasharray:5.55,2.4;stroke-dashoffset:0;stroke-width:1.5;"/>
    </g>
    <g id="line2d_36"/>
    <g id="text_23">
     <!-- round=4 -->
     <g transform="translate(81.845313 169.525937)scale(0.1 -0.1)">
      <defs>
       <path d="M 37.796875 64.3125 
L 12.890625 25.390625 
L 37.796875 25.390625 
z
M 35.203125 72.90625 
L 47.609375 72.90625 
L 47.609375 25.390625 
L 58.015625 25.390625 
L 58.015625 17.1875 
L 47.609375 17.1875 
L 47.609375 0 
L 37.796875 0 
L 37.796875 17.1875 
L 4.890625 17.1875 
L 4.890625 26.703125 
z
" id="DejaVuSans-52"/>
      </defs>
      <use xlink:href="#DejaVuSans-114"/>
      <use x="38.863281" xlink:href="#DejaVuSans-111"/>
      <use x="100.044922" xlink:href="#DejaVuSans-117"/>
      <use x="163.423828" xlink:href="#DejaVuSans-110"/>
      <use x="226.802734" xlink:href="#DejaVuSans-100"/>
      <use x="290.279297" xlink:href="#DejaVuSans-61"/>
      <use x="374.068359" xlink:href="#DejaVuSans-52"/>
     </g>
    </g>
    <g id="line2d_37">
     <path d="M 53.845313 180.704062 
L 73.845313 180.704062 
" style="fill:none;stroke:#9467bd;stroke-dasharray:5.55,2.4;stroke-dashoffset:0;stroke-width:1.5;"/>
    </g>
    <g id="line2d_38"/>
    <g id="text_24">
     <!-- round=5 -->
     <g transform="translate(81.845313 184.204062)scale(0.1 -0.1)">
      <use xlink:href="#DejaVuSans-114"/>
      <use x="38.863281" xlink:href="#DejaVuSans-111"/>
      <use x="100.044922" xlink:href="#DejaVuSans-117"/>
      <use x="163.423828" xlink:href="#DejaVuSans-110"/>
      <use x="226.802734" xlink:href="#DejaVuSans-100"/>
      <use x="290.279297" xlink:href="#DejaVuSans-61"/>
      <use x="374.068359" xlink:href="#DejaVuSans-53"/>
     </g>
    </g>
    <g id="line2d_39">
     <path d="M 53.845313 195.382187 
L 73.845313 195.382187 
" style="fill:none;stroke:#8c564b;stroke-dasharray:5.55,2.4;stroke-dashoffset:0;stroke-width:1.5;"/>
    </g>
    <g id="line2d_40"/>
    <g id="text_25">
     <!-- round=6 -->
     <g transform="translate(81.845313 198.882187)scale(0.1 -0.1)">
      <defs>
       <path d="M 33.015625 40.375 
Q 26.375 40.375 22.484375 35.828125 
Q 18.609375 31.296875 18.609375 23.390625 
Q 18.609375 15.53125 22.484375 10.953125 
Q 26.375 6.390625 33.015625 6.390625 
Q 39.65625 6.390625 43.53125 10.953125 
Q 47.40625 15.53125 47.40625 23.390625 
Q 47.40625 31.296875 43.53125 35.828125 
Q 39.65625 40.375 33.015625 40.375 
z
M 52.59375 71.296875 
L 52.59375 62.3125 
Q 48.875 64.0625 45.09375 64.984375 
Q 41.3125 65.921875 37.59375 65.921875 
Q 27.828125 65.921875 22.671875 59.328125 
Q 17.53125 52.734375 16.796875 39.40625 
Q 19.671875 43.65625 24.015625 45.921875 
Q 28.375 48.1875 33.59375 48.1875 
Q 44.578125 48.1875 50.953125 41.515625 
Q 57.328125 34.859375 57.328125 23.390625 
Q 57.328125 12.15625 50.6875 5.359375 
Q 44.046875 -1.421875 33.015625 -1.421875 
Q 20.359375 -1.421875 13.671875 8.265625 
Q 6.984375 17.96875 6.984375 36.375 
Q 6.984375 53.65625 15.1875 63.9375 
Q 23.390625 74.21875 37.203125 74.21875 
Q 40.921875 74.21875 44.703125 73.484375 
Q 48.484375 72.75 52.59375 71.296875 
z
" id="DejaVuSans-54"/>
      </defs>
      <use xlink:href="#DejaVuSans-114"/>
      <use x="38.863281" xlink:href="#DejaVuSans-111"/>
      <use x="100.044922" xlink:href="#DejaVuSans-117"/>
      <use x="163.423828" xlink:href="#DejaVuSans-110"/>
      <use x="226.802734" xlink:href="#DejaVuSans-100"/>
      <use x="290.279297" xlink:href="#DejaVuSans-61"/>
      <use x="374.068359" xlink:href="#DejaVuSans-54"/>
     </g>
    </g>
    <g id="line2d_41">
     <path d="M 53.845313 210.060312 
L 73.845313 210.060312 
" style="fill:none;stroke:#e377c2;stroke-dasharray:5.55,2.4;stroke-dashoffset:0;stroke-width:1.5;"/>
    </g>
    <g id="line2d_42"/>
    <g id="text_26">
     <!-- round=7 -->
     <g transform="translate(81.845313 213.560312)scale(0.1 -0.1)">
      <use xlink:href="#DejaVuSans-114"/>
      <use x="38.863281" xlink:href="#DejaVuSans-111"/>
      <use x="100.044922" xlink:href="#DejaVuSans-117"/>
      <use x="163.423828" xlink:href="#DejaVuSans-110"/>
      <use x="226.802734" xlink:href="#DejaVuSans-100"/>
      <use x="290.279297" xlink:href="#DejaVuSans-61"/>
      <use x="374.068359" xlink:href="#DejaVuSans-55"/>
     </g>
    </g>
   </g>
  </g>
 </g>
 <defs>
  <clipPath id="pc7f912cb5b">
   <rect height="217.44" width="334.8" x="44.845313" y="7.2"/>
  </clipPath>
 </defs>
</svg>
