<?xml version="1.0" encoding="utf-8" standalone="no"?>
<!DOCTYPE svg PUBLIC "-//W3C//DTD SVG 1.1//EN"
  "http://www.w3.org/Graphics/SVG/1.1/DTD/svg11.dtd">
<!-- Created with matplotlib (https://matplotlib.org/) -->
<svg height="248.518125pt" version="1.1" viewBox="0 0 386.845312 248.518125" width="386.845312pt" xmlns="http://www.w3.org/2000/svg" xmlns:xlink="http://www.w3.org/1999/xlink">
 <metadata>
  <rdf:RDF xmlns:cc="http://creativecommons.org/ns#" xmlns:dc="http://purl.org/dc/elements/1.1/" xmlns:rdf="http://www.w3.org/1999/02/22-rdf-syntax-ns#">
   <cc:Work>
    <dc:type rdf:resource="http://purl.org/dc/dcmitype/StillImage"/>
    <dc:date>2021-02-09T20:11:01.118643</dc:date>
    <dc:format>image/svg+xml</dc:format>
    <dc:creator>
     <cc:Agent>
      <dc:title>Matplotlib v3.3.4, https://matplotlib.org/</dc:title>
     </cc:Agent>
    </dc:creator>
   </cc:Work>
  </rdf:RDF>
 </metadata>
 <defs>
  <style type="text/css">*{stroke-linecap:butt;stroke-linejoin:round;}</style>
 </defs>
 <g id="figure_1">
  <g id="patch_1">
   <path d="M 0 248.518125 
L 386.845312 248.518125 
L 386.845312 0 
L 0 0 
z
" style="fill:none;"/>
  </g>
  <g id="axes_1">
   <g id="patch_2">
    <path d="M 44.845313 224.64 
L 379.645313 224.64 
L 379.645313 7.2 
L 44.845313 7.2 
z
" style="fill:#ffffff;"/>
   </g>
   <g id="matplotlib.axis_1">
    <g id="xtick_1">
     <g id="line2d_1">
      <defs>
       <path d="M 0 0 
L 0 3.5 
" id="ma3a8e08591" style="stroke:#000000;stroke-width:0.8;"/>
      </defs>
      <g>
       <use style="stroke:#000000;stroke-width:0.8;" x="60.063494" xlink:href="#ma3a8e08591" y="224.64"/>
      </g>
     </g>
     <g id="text_1">
      <!-- −1.00 -->
      <g transform="translate(44.740838 239.238437)scale(0.1 -0.1)">
       <defs>
        <path d="M 10.59375 35.5 
L 73.1875 35.5 
L 73.1875 27.203125 
L 10.59375 27.203125 
z
" id="DejaVuSans-8722"/>
        <path d="M 12.40625 8.296875 
L 28.515625 8.296875 
L 28.515625 63.921875 
L 10.984375 60.40625 
L 10.984375 69.390625 
L 28.421875 72.90625 
L 38.28125 72.90625 
L 38.28125 8.296875 
L 54.390625 8.296875 
L 54.390625 0 
L 12.40625 0 
z
" id="DejaVuSans-49"/>
        <path d="M 10.6875 12.40625 
L 21 12.40625 
L 21 0 
L 10.6875 0 
z
" id="DejaVuSans-46"/>
        <path d="M 31.78125 66.40625 
Q 24.171875 66.40625 20.328125 58.90625 
Q 16.5 51.421875 16.5 36.375 
Q 16.5 21.390625 20.328125 13.890625 
Q 24.171875 6.390625 31.78125 6.390625 
Q 39.453125 6.390625 43.28125 13.890625 
Q 47.125 21.390625 47.125 36.375 
Q 47.125 51.421875 43.28125 58.90625 
Q 39.453125 66.40625 31.78125 66.40625 
z
M 31.78125 74.21875 
Q 44.046875 74.21875 50.515625 64.515625 
Q 56.984375 54.828125 56.984375 36.375 
Q 56.984375 17.96875 50.515625 8.265625 
Q 44.046875 -1.421875 31.78125 -1.421875 
Q 19.53125 -1.421875 13.0625 8.265625 
Q 6.59375 17.96875 6.59375 36.375 
Q 6.59375 54.828125 13.0625 64.515625 
Q 19.53125 74.21875 31.78125 74.21875 
z
" id="DejaVuSans-48"/>
       </defs>
       <use xlink:href="#DejaVuSans-8722"/>
       <use x="83.789062" xlink:href="#DejaVuSans-49"/>
       <use x="147.412109" xlink:href="#DejaVuSans-46"/>
       <use x="179.199219" xlink:href="#DejaVuSans-48"/>
       <use x="242.822266" xlink:href="#DejaVuSans-48"/>
      </g>
     </g>
    </g>
    <g id="xtick_2">
     <g id="line2d_2">
      <g>
       <use style="stroke:#000000;stroke-width:0.8;" x="98.108949" xlink:href="#ma3a8e08591" y="224.64"/>
      </g>
     </g>
     <g id="text_2">
      <!-- −0.75 -->
      <g transform="translate(82.786293 239.238437)scale(0.1 -0.1)">
       <defs>
        <path d="M 8.203125 72.90625 
L 55.078125 72.90625 
L 55.078125 68.703125 
L 28.609375 0 
L 18.3125 0 
L 43.21875 64.59375 
L 8.203125 64.59375 
z
" id="DejaVuSans-55"/>
        <path d="M 10.796875 72.90625 
L 49.515625 72.90625 
L 49.515625 64.59375 
L 19.828125 64.59375 
L 19.828125 46.734375 
Q 21.96875 47.46875 24.109375 47.828125 
Q 26.265625 48.1875 28.421875 48.1875 
Q 40.625 48.1875 47.75 41.5 
Q 54.890625 34.8125 54.890625 23.390625 
Q 54.890625 11.625 47.5625 5.09375 
Q 40.234375 -1.421875 26.90625 -1.421875 
Q 22.3125 -1.421875 17.546875 -0.640625 
Q 12.796875 0.140625 7.71875 1.703125 
L 7.71875 11.625 
Q 12.109375 9.234375 16.796875 8.0625 
Q 21.484375 6.890625 26.703125 6.890625 
Q 35.15625 6.890625 40.078125 11.328125 
Q 45.015625 15.765625 45.015625 23.390625 
Q 45.015625 31 40.078125 35.4375 
Q 35.15625 39.890625 26.703125 39.890625 
Q 22.75 39.890625 18.8125 39.015625 
Q 14.890625 38.140625 10.796875 36.28125 
z
" id="DejaVuSans-53"/>
       </defs>
       <use xlink:href="#DejaVuSans-8722"/>
       <use x="83.789062" xlink:href="#DejaVuSans-48"/>
       <use x="147.412109" xlink:href="#DejaVuSans-46"/>
       <use x="179.199219" xlink:href="#DejaVuSans-55"/>
       <use x="242.822266" xlink:href="#DejaVuSans-53"/>
      </g>
     </g>
    </g>
    <g id="xtick_3">
     <g id="line2d_3">
      <g>
       <use style="stroke:#000000;stroke-width:0.8;" x="136.154403" xlink:href="#ma3a8e08591" y="224.64"/>
      </g>
     </g>
     <g id="text_3">
      <!-- −0.50 -->
      <g transform="translate(120.831747 239.238437)scale(0.1 -0.1)">
       <use xlink:href="#DejaVuSans-8722"/>
       <use x="83.789062" xlink:href="#DejaVuSans-48"/>
       <use x="147.412109" xlink:href="#DejaVuSans-46"/>
       <use x="179.199219" xlink:href="#DejaVuSans-53"/>
       <use x="242.822266" xlink:href="#DejaVuSans-48"/>
      </g>
     </g>
    </g>
    <g id="xtick_4">
     <g id="line2d_4">
      <g>
       <use style="stroke:#000000;stroke-width:0.8;" x="174.199858" xlink:href="#ma3a8e08591" y="224.64"/>
      </g>
     </g>
     <g id="text_4">
      <!-- −0.25 -->
      <g transform="translate(158.877202 239.238437)scale(0.1 -0.1)">
       <defs>
        <path d="M 19.1875 8.296875 
L 53.609375 8.296875 
L 53.609375 0 
L 7.328125 0 
L 7.328125 8.296875 
Q 12.9375 14.109375 22.625 23.890625 
Q 32.328125 33.6875 34.8125 36.53125 
Q 39.546875 41.84375 41.421875 45.53125 
Q 43.3125 49.21875 43.3125 52.78125 
Q 43.3125 58.59375 39.234375 62.25 
Q 35.15625 65.921875 28.609375 65.921875 
Q 23.96875 65.921875 18.8125 64.3125 
Q 13.671875 62.703125 7.8125 59.421875 
L 7.8125 69.390625 
Q 13.765625 71.78125 18.9375 73 
Q 24.125 74.21875 28.421875 74.21875 
Q 39.75 74.21875 46.484375 68.546875 
Q 53.21875 62.890625 53.21875 53.421875 
Q 53.21875 48.921875 51.53125 44.890625 
Q 49.859375 40.875 45.40625 35.40625 
Q 44.1875 33.984375 37.640625 27.21875 
Q 31.109375 20.453125 19.1875 8.296875 
z
" id="DejaVuSans-50"/>
       </defs>
       <use xlink:href="#DejaVuSans-8722"/>
       <use x="83.789062" xlink:href="#DejaVuSans-48"/>
       <use x="147.412109" xlink:href="#DejaVuSans-46"/>
       <use x="179.199219" xlink:href="#DejaVuSans-50"/>
       <use x="242.822266" xlink:href="#DejaVuSans-53"/>
      </g>
     </g>
    </g>
    <g id="xtick_5">
     <g id="line2d_5">
      <g>
       <use style="stroke:#000000;stroke-width:0.8;" x="212.245313" xlink:href="#ma3a8e08591" y="224.64"/>
      </g>
     </g>
     <g id="text_5">
      <!-- 0.00 -->
      <g transform="translate(201.1125 239.238437)scale(0.1 -0.1)">
       <use xlink:href="#DejaVuSans-48"/>
       <use x="63.623047" xlink:href="#DejaVuSans-46"/>
       <use x="95.410156" xlink:href="#DejaVuSans-48"/>
       <use x="159.033203" xlink:href="#DejaVuSans-48"/>
      </g>
     </g>
    </g>
    <g id="xtick_6">
     <g id="line2d_6">
      <g>
       <use style="stroke:#000000;stroke-width:0.8;" x="250.290767" xlink:href="#ma3a8e08591" y="224.64"/>
      </g>
     </g>
     <g id="text_6">
      <!-- 0.25 -->
      <g transform="translate(239.157955 239.238437)scale(0.1 -0.1)">
       <use xlink:href="#DejaVuSans-48"/>
       <use x="63.623047" xlink:href="#DejaVuSans-46"/>
       <use x="95.410156" xlink:href="#DejaVuSans-50"/>
       <use x="159.033203" xlink:href="#DejaVuSans-53"/>
      </g>
     </g>
    </g>
    <g id="xtick_7">
     <g id="line2d_7">
      <g>
       <use style="stroke:#000000;stroke-width:0.8;" x="288.336222" xlink:href="#ma3a8e08591" y="224.64"/>
      </g>
     </g>
     <g id="text_7">
      <!-- 0.50 -->
      <g transform="translate(277.203409 239.238437)scale(0.1 -0.1)">
       <use xlink:href="#DejaVuSans-48"/>
       <use x="63.623047" xlink:href="#DejaVuSans-46"/>
       <use x="95.410156" xlink:href="#DejaVuSans-53"/>
       <use x="159.033203" xlink:href="#DejaVuSans-48"/>
      </g>
     </g>
    </g>
    <g id="xtick_8">
     <g id="line2d_8">
      <g>
       <use style="stroke:#000000;stroke-width:0.8;" x="326.381676" xlink:href="#ma3a8e08591" y="224.64"/>
      </g>
     </g>
     <g id="text_8">
      <!-- 0.75 -->
      <g transform="translate(315.248864 239.238437)scale(0.1 -0.1)">
       <use xlink:href="#DejaVuSans-48"/>
       <use x="63.623047" xlink:href="#DejaVuSans-46"/>
       <use x="95.410156" xlink:href="#DejaVuSans-55"/>
       <use x="159.033203" xlink:href="#DejaVuSans-53"/>
      </g>
     </g>
    </g>
    <g id="xtick_9">
     <g id="line2d_9">
      <g>
       <use style="stroke:#000000;stroke-width:0.8;" x="364.427131" xlink:href="#ma3a8e08591" y="224.64"/>
      </g>
     </g>
     <g id="text_9">
      <!-- 1.00 -->
      <g transform="translate(353.294318 239.238437)scale(0.1 -0.1)">
       <use xlink:href="#DejaVuSans-49"/>
       <use x="63.623047" xlink:href="#DejaVuSans-46"/>
       <use x="95.410156" xlink:href="#DejaVuSans-48"/>
       <use x="159.033203" xlink:href="#DejaVuSans-48"/>
      </g>
     </g>
    </g>
   </g>
   <g id="matplotlib.axis_2">
    <g id="ytick_1">
     <g id="line2d_10">
      <defs>
       <path d="M 0 0 
L -3.5 0 
" id="m972ed33a74" style="stroke:#000000;stroke-width:0.8;"/>
      </defs>
      <g>
       <use style="stroke:#000000;stroke-width:0.8;" x="44.845313" xlink:href="#m972ed33a74" y="218.626045"/>
      </g>
     </g>
     <g id="text_10">
      <!-- −1.00 -->
      <g transform="translate(7.2 222.425264)scale(0.1 -0.1)">
       <use xlink:href="#DejaVuSans-8722"/>
       <use x="83.789062" xlink:href="#DejaVuSans-49"/>
       <use x="147.412109" xlink:href="#DejaVuSans-46"/>
       <use x="179.199219" xlink:href="#DejaVuSans-48"/>
       <use x="242.822266" xlink:href="#DejaVuSans-48"/>
      </g>
     </g>
    </g>
    <g id="ytick_2">
     <g id="line2d_11">
      <g>
       <use style="stroke:#000000;stroke-width:0.8;" x="44.845313" xlink:href="#m972ed33a74" y="192.882811"/>
      </g>
     </g>
     <g id="text_11">
      <!-- −0.75 -->
      <g transform="translate(7.2 196.68203)scale(0.1 -0.1)">
       <use xlink:href="#DejaVuSans-8722"/>
       <use x="83.789062" xlink:href="#DejaVuSans-48"/>
       <use x="147.412109" xlink:href="#DejaVuSans-46"/>
       <use x="179.199219" xlink:href="#DejaVuSans-55"/>
       <use x="242.822266" xlink:href="#DejaVuSans-53"/>
      </g>
     </g>
    </g>
    <g id="ytick_3">
     <g id="line2d_12">
      <g>
       <use style="stroke:#000000;stroke-width:0.8;" x="44.845313" xlink:href="#m972ed33a74" y="167.139577"/>
      </g>
     </g>
     <g id="text_12">
      <!-- −0.50 -->
      <g transform="translate(7.2 170.938796)scale(0.1 -0.1)">
       <use xlink:href="#DejaVuSans-8722"/>
       <use x="83.789062" xlink:href="#DejaVuSans-48"/>
       <use x="147.412109" xlink:href="#DejaVuSans-46"/>
       <use x="179.199219" xlink:href="#DejaVuSans-53"/>
       <use x="242.822266" xlink:href="#DejaVuSans-48"/>
      </g>
     </g>
    </g>
    <g id="ytick_4">
     <g id="line2d_13">
      <g>
       <use style="stroke:#000000;stroke-width:0.8;" x="44.845313" xlink:href="#m972ed33a74" y="141.396343"/>
      </g>
     </g>
     <g id="text_13">
      <!-- −0.25 -->
      <g transform="translate(7.2 145.195562)scale(0.1 -0.1)">
       <use xlink:href="#DejaVuSans-8722"/>
       <use x="83.789062" xlink:href="#DejaVuSans-48"/>
       <use x="147.412109" xlink:href="#DejaVuSans-46"/>
       <use x="179.199219" xlink:href="#DejaVuSans-50"/>
       <use x="242.822266" xlink:href="#DejaVuSans-53"/>
      </g>
     </g>
    </g>
    <g id="ytick_5">
     <g id="line2d_14">
      <g>
       <use style="stroke:#000000;stroke-width:0.8;" x="44.845313" xlink:href="#m972ed33a74" y="115.653109"/>
      </g>
     </g>
     <g id="text_14">
      <!-- 0.00 -->
      <g transform="translate(15.579688 119.452328)scale(0.1 -0.1)">
       <use xlink:href="#DejaVuSans-48"/>
       <use x="63.623047" xlink:href="#DejaVuSans-46"/>
       <use x="95.410156" xlink:href="#DejaVuSans-48"/>
       <use x="159.033203" xlink:href="#DejaVuSans-48"/>
      </g>
     </g>
    </g>
    <g id="ytick_6">
     <g id="line2d_15">
      <g>
       <use style="stroke:#000000;stroke-width:0.8;" x="44.845313" xlink:href="#m972ed33a74" y="89.909875"/>
      </g>
     </g>
     <g id="text_15">
      <!-- 0.25 -->
      <g transform="translate(15.579688 93.709093)scale(0.1 -0.1)">
       <use xlink:href="#DejaVuSans-48"/>
       <use x="63.623047" xlink:href="#DejaVuSans-46"/>
       <use x="95.410156" xlink:href="#DejaVuSans-50"/>
       <use x="159.033203" xlink:href="#DejaVuSans-53"/>
      </g>
     </g>
    </g>
    <g id="ytick_7">
     <g id="line2d_16">
      <g>
       <use style="stroke:#000000;stroke-width:0.8;" x="44.845313" xlink:href="#m972ed33a74" y="64.166641"/>
      </g>
     </g>
     <g id="text_16">
      <!-- 0.50 -->
      <g transform="translate(15.579688 67.965859)scale(0.1 -0.1)">
       <use xlink:href="#DejaVuSans-48"/>
       <use x="63.623047" xlink:href="#DejaVuSans-46"/>
       <use x="95.410156" xlink:href="#DejaVuSans-53"/>
       <use x="159.033203" xlink:href="#DejaVuSans-48"/>
      </g>
     </g>
    </g>
    <g id="ytick_8">
     <g id="line2d_17">
      <g>
       <use style="stroke:#000000;stroke-width:0.8;" x="44.845313" xlink:href="#m972ed33a74" y="38.423406"/>
      </g>
     </g>
     <g id="text_17">
      <!-- 0.75 -->
      <g transform="translate(15.579688 42.222625)scale(0.1 -0.1)">
       <use xlink:href="#DejaVuSans-48"/>
       <use x="63.623047" xlink:href="#DejaVuSans-46"/>
       <use x="95.410156" xlink:href="#DejaVuSans-55"/>
       <use x="159.033203" xlink:href="#DejaVuSans-53"/>
      </g>
     </g>
    </g>
    <g id="ytick_9">
     <g id="line2d_18">
      <g>
       <use style="stroke:#000000;stroke-width:0.8;" x="44.845313" xlink:href="#m972ed33a74" y="12.680172"/>
      </g>
     </g>
     <g id="text_18">
      <!-- 1.00 -->
      <g transform="translate(15.579688 16.479391)scale(0.1 -0.1)">
       <use xlink:href="#DejaVuSans-49"/>
       <use x="63.623047" xlink:href="#DejaVuSans-46"/>
       <use x="95.410156" xlink:href="#DejaVuSans-48"/>
       <use x="159.033203" xlink:href="#DejaVuSans-48"/>
      </g>
     </g>
    </g>
   </g>
   <g id="line2d_19">
    <defs>
     <path d="M 0 3 
C 0.795609 3 1.55874 2.683901 2.12132 2.12132 
C 2.683901 1.55874 3 0.795609 3 0 
C 3 -0.795609 2.683901 -1.55874 2.12132 -2.12132 
C 1.55874 -2.683901 0.795609 -3 0 -3 
C -0.795609 -3 -1.55874 -2.683901 -2.12132 -2.12132 
C -2.683901 -1.55874 -3 -0.795609 -3 0 
C -3 0.795609 -2.683901 1.55874 -2.12132 2.12132 
C -1.55874 2.683901 -0.795609 3 0 3 
z
" id="m11fc32889d" style="stroke:#ff0000;"/>
    </defs>
    <g clip-path="url(#p2f12657833)">
     <use style="fill:#ff0000;stroke:#ff0000;" x="60.063494" xlink:href="#m11fc32889d" y="105.600169"/>
     <use style="fill:#ff0000;stroke:#ff0000;" x="66.274997" xlink:href="#m11fc32889d" y="71.335747"/>
     <use style="fill:#ff0000;stroke:#ff0000;" x="72.4865" xlink:href="#m11fc32889d" y="94.489416"/>
     <use style="fill:#ff0000;stroke:#ff0000;" x="78.698003" xlink:href="#m11fc32889d" y="106.409603"/>
     <use style="fill:#ff0000;stroke:#ff0000;" x="84.909505" xlink:href="#m11fc32889d" y="131.376088"/>
     <use style="fill:#ff0000;stroke:#ff0000;" x="91.121008" xlink:href="#m11fc32889d" y="85.606818"/>
     <use style="fill:#ff0000;stroke:#ff0000;" x="97.332511" xlink:href="#m11fc32889d" y="128.506765"/>
     <use style="fill:#ff0000;stroke:#ff0000;" x="103.544014" xlink:href="#m11fc32889d" y="34.969076"/>
     <use style="fill:#ff0000;stroke:#ff0000;" x="109.755517" xlink:href="#m11fc32889d" y="20.163677"/>
     <use style="fill:#ff0000;stroke:#ff0000;" x="115.967019" xlink:href="#m11fc32889d" y="139.657847"/>
     <use style="fill:#ff0000;stroke:#ff0000;" x="122.178522" xlink:href="#m11fc32889d" y="55.573541"/>
     <use style="fill:#ff0000;stroke:#ff0000;" x="128.390025" xlink:href="#m11fc32889d" y="109.702319"/>
     <use style="fill:#ff0000;stroke:#ff0000;" x="134.601528" xlink:href="#m11fc32889d" y="101.639612"/>
     <use style="fill:#ff0000;stroke:#ff0000;" x="140.81303" xlink:href="#m11fc32889d" y="28.003237"/>
     <use style="fill:#ff0000;stroke:#ff0000;" x="147.024533" xlink:href="#m11fc32889d" y="203.996462"/>
     <use style="fill:#ff0000;stroke:#ff0000;" x="153.236036" xlink:href="#m11fc32889d" y="200.682126"/>
     <use style="fill:#ff0000;stroke:#ff0000;" x="159.447539" xlink:href="#m11fc32889d" y="214.46215"/>
     <use style="fill:#ff0000;stroke:#ff0000;" x="165.659042" xlink:href="#m11fc32889d" y="47.151424"/>
     <use style="fill:#ff0000;stroke:#ff0000;" x="171.870544" xlink:href="#m11fc32889d" y="58.367874"/>
     <use style="fill:#ff0000;stroke:#ff0000;" x="178.082047" xlink:href="#m11fc32889d" y="39.450634"/>
     <use style="fill:#ff0000;stroke:#ff0000;" x="184.29355" xlink:href="#m11fc32889d" y="17.083636"/>
     <use style="fill:#ff0000;stroke:#ff0000;" x="190.505053" xlink:href="#m11fc32889d" y="54.042637"/>
     <use style="fill:#ff0000;stroke:#ff0000;" x="196.716556" xlink:href="#m11fc32889d" y="123.586275"/>
     <use style="fill:#ff0000;stroke:#ff0000;" x="202.928058" xlink:href="#m11fc32889d" y="57.879283"/>
     <use style="fill:#ff0000;stroke:#ff0000;" x="209.139561" xlink:href="#m11fc32889d" y="194.267916"/>
     <use style="fill:#ff0000;stroke:#ff0000;" x="215.351064" xlink:href="#m11fc32889d" y="86.836952"/>
     <use style="fill:#ff0000;stroke:#ff0000;" x="221.562567" xlink:href="#m11fc32889d" y="189.103028"/>
     <use style="fill:#ff0000;stroke:#ff0000;" x="227.774069" xlink:href="#m11fc32889d" y="24.07538"/>
     <use style="fill:#ff0000;stroke:#ff0000;" x="233.985572" xlink:href="#m11fc32889d" y="111.153537"/>
     <use style="fill:#ff0000;stroke:#ff0000;" x="240.197075" xlink:href="#m11fc32889d" y="133.22813"/>
     <use style="fill:#ff0000;stroke:#ff0000;" x="246.408578" xlink:href="#m11fc32889d" y="164.141909"/>
     <use style="fill:#ff0000;stroke:#ff0000;" x="252.620081" xlink:href="#m11fc32889d" y="59.175812"/>
     <use style="fill:#ff0000;stroke:#ff0000;" x="258.831583" xlink:href="#m11fc32889d" y="124.683767"/>
     <use style="fill:#ff0000;stroke:#ff0000;" x="265.043086" xlink:href="#m11fc32889d" y="101.559419"/>
     <use style="fill:#ff0000;stroke:#ff0000;" x="271.254589" xlink:href="#m11fc32889d" y="214.756364"/>
     <use style="fill:#ff0000;stroke:#ff0000;" x="277.466092" xlink:href="#m11fc32889d" y="91.426564"/>
     <use style="fill:#ff0000;stroke:#ff0000;" x="283.677595" xlink:href="#m11fc32889d" y="92.567457"/>
     <use style="fill:#ff0000;stroke:#ff0000;" x="289.889097" xlink:href="#m11fc32889d" y="91.571035"/>
     <use style="fill:#ff0000;stroke:#ff0000;" x="296.1006" xlink:href="#m11fc32889d" y="24.265023"/>
     <use style="fill:#ff0000;stroke:#ff0000;" x="302.312103" xlink:href="#m11fc32889d" y="78.207969"/>
     <use style="fill:#ff0000;stroke:#ff0000;" x="308.523606" xlink:href="#m11fc32889d" y="144.586877"/>
     <use style="fill:#ff0000;stroke:#ff0000;" x="314.735108" xlink:href="#m11fc32889d" y="128.621118"/>
     <use style="fill:#ff0000;stroke:#ff0000;" x="320.946611" xlink:href="#m11fc32889d" y="74.95178"/>
     <use style="fill:#ff0000;stroke:#ff0000;" x="327.158114" xlink:href="#m11fc32889d" y="206.222858"/>
     <use style="fill:#ff0000;stroke:#ff0000;" x="333.369617" xlink:href="#m11fc32889d" y="81.308192"/>
     <use style="fill:#ff0000;stroke:#ff0000;" x="339.58112" xlink:href="#m11fc32889d" y="80.510944"/>
     <use style="fill:#ff0000;stroke:#ff0000;" x="345.792622" xlink:href="#m11fc32889d" y="175.298625"/>
     <use style="fill:#ff0000;stroke:#ff0000;" x="352.004125" xlink:href="#m11fc32889d" y="192.074207"/>
     <use style="fill:#ff0000;stroke:#ff0000;" x="358.215628" xlink:href="#m11fc32889d" y="153.664878"/>
     <use style="fill:#ff0000;stroke:#ff0000;" x="364.427131" xlink:href="#m11fc32889d" y="143.721313"/>
    </g>
   </g>
   <g id="line2d_20">
    <path clip-path="url(#p2f12657833)" d="M 60.063494 86.433853 
L 66.274997 87.307342 
L 72.4865 88.180832 
L 78.698003 89.054322 
L 84.909505 89.927811 
L 91.121008 90.801301 
L 97.332511 91.674791 
L 103.544014 92.54828 
L 109.755517 93.42177 
L 115.967019 94.29526 
L 122.178522 95.168749 
L 128.390025 96.042239 
L 134.601528 96.915729 
L 140.81303 97.789218 
L 147.024533 98.662708 
L 153.236036 99.536198 
L 159.447539 100.409687 
L 165.659042 101.283177 
L 171.870544 102.156667 
L 178.082047 103.030156 
L 184.29355 103.903646 
L 190.505053 104.777136 
L 196.716556 105.650625 
L 202.928058 106.524115 
L 209.139561 107.397605 
L 215.351064 108.271094 
L 221.562567 109.144584 
L 227.774069 110.018074 
L 233.985572 110.891563 
L 240.197075 111.765053 
L 246.408578 112.638543 
L 252.620081 113.512032 
L 258.831583 114.385522 
L 265.043086 115.259012 
L 271.254589 116.132501 
L 277.466092 117.005991 
L 283.677595 117.87948 
L 289.889097 118.75297 
L 296.1006 119.62646 
L 302.312103 120.499949 
L 308.523606 121.373439 
L 314.735108 122.246929 
L 320.946611 123.120418 
L 327.158114 123.993908 
L 333.369617 124.867398 
L 339.58112 125.740887 
L 345.792622 126.614377 
L 352.004125 127.487867 
L 358.215628 128.361356 
L 364.427131 129.234846 
" style="fill:none;stroke:#1f77b4;stroke-linecap:square;stroke-width:1.5;"/>
   </g>
   <g id="line2d_21">
    <path clip-path="url(#p2f12657833)" d="M 60.063494 95.201899 
L 66.274997 95.097025 
L 72.4865 94.899509 
L 78.698003 94.66546 
L 84.909505 94.441632 
L 91.121008 94.266011 
L 97.332511 94.168422 
L 103.544014 94.171117 
L 109.755517 94.289379 
L 115.967019 94.532113 
L 122.178522 94.902447 
L 128.390025 95.398328 
L 134.601528 96.013117 
L 140.81303 96.736186 
L 147.024533 97.553519 
L 153.236036 98.448302 
L 159.447539 99.401526 
L 165.659042 100.392581 
L 171.870544 101.399852 
L 178.082047 102.401319 
L 184.29355 103.375149 
L 190.505053 104.300299 
L 196.716556 105.157107 
L 202.928058 105.927892 
L 209.139561 106.597552 
L 215.351064 107.154155 
L 221.562567 107.589544 
L 227.774069 107.899928 
L 233.985572 108.086481 
L 240.197075 108.155936 
L 246.408578 108.121188 
L 252.620081 108.001884 
L 258.831583 107.825026 
L 265.043086 107.62556 
L 271.254589 107.446983 
L 277.466092 107.34193 
L 283.677595 107.372778 
L 289.889097 107.612239 
L 296.1006 108.143957 
L 302.312103 109.063108 
L 308.523606 110.476992 
L 314.735108 112.505634 
L 320.946611 115.282379 
L 327.158114 118.954489 
L 333.369617 123.68374 
L 339.58112 129.647019 
L 345.792622 137.036918 
L 352.004125 146.062339 
L 358.215628 156.949079 
L 364.427131 169.940437 
" style="fill:none;stroke:#ff7f0e;stroke-linecap:square;stroke-width:1.5;"/>
   </g>
   <g id="line2d_22">
    <path clip-path="url(#p2f12657833)" d="M 60.063494 79.41173 
L 66.274997 113.166243 
L 72.4865 114.298078 
L 78.698003 102.163369 
L 84.909505 88.188983 
L 91.121008 78.216895 
L 97.332511 74.347774 
L 103.544014 76.358237 
L 109.755517 82.759226 
L 115.967019 91.556326 
L 122.178522 100.766472 
L 128.390025 108.739465 
L 134.601528 114.327005 
L 140.81303 116.936512 
L 147.024533 116.501944 
L 153.236036 113.39901 
L 159.447539 108.327726 
L 165.659042 102.181101 
L 171.870544 95.914893 
L 178.082047 90.429846 
L 184.29355 86.47462 
L 190.505053 84.574699 
L 196.716556 84.989999 
L 202.928058 87.701596 
L 209.139561 92.426062 
L 215.351064 98.654218 
L 221.562567 105.709812 
L 227.774069 112.82257 
L 233.985572 119.209403 
L 240.197075 124.157111 
L 246.408578 127.099895 
L 252.620081 127.685168 
L 258.831583 125.821752 
L 265.043086 121.705365 
L 271.254589 115.817499 
L 277.466092 108.895273 
L 283.677595 101.871634 
L 289.889097 95.787401 
L 296.1006 91.679072 
L 302.312103 90.449049 
L 308.523606 92.727994 
L 314.735108 98.742398 
L 320.946611 108.204105 
L 327.158114 120.242564 
L 333.369617 133.404842 
L 339.58112 145.7531 
L 345.792622 155.094119 
L 352.004125 159.380745 
L 358.215628 157.330681 
L 364.427131 149.31389 
" style="fill:none;stroke:#2ca02c;stroke-linecap:square;stroke-width:1.5;"/>
   </g>
   <g id="line2d_23">
    <path clip-path="url(#p2f12657833)" d="M 60.063494 101.875954 
L 66.274997 77.130351 
L 72.4865 96.671261 
L 78.698003 112.896599 
L 84.909505 112.943468 
L 91.121008 100.228656 
L 97.332511 83.377732 
L 103.544014 70.297707 
L 109.755517 65.657872 
L 115.967019 70.470643 
L 122.178522 82.817393 
L 128.390025 99.051729 
L 134.601528 115.042001 
L 140.81303 127.193407 
L 147.024533 133.124671 
L 153.236036 131.971387 
L 159.447539 124.35362 
L 165.659042 112.084914 
L 171.870544 97.718437 
L 178.082047 84.028393 
L 184.29355 73.515176 
L 190.505053 68.004927 
L 196.716556 68.391475 
L 202.928058 74.544044 
L 209.139561 85.380165 
L 215.351064 99.081808 
L 221.562567 113.415745 
L 227.774069 126.107466 
L 233.985572 135.212609 
L 240.197075 139.430964 
L 246.408578 138.315637 
L 252.620081 132.343377 
L 258.831583 122.830323 
L 265.043086 111.699165 
L 271.254589 101.127013 
L 277.466092 93.125917 
L 283.677595 89.12715 
L 289.889097 89.652988 
L 296.1006 94.162143 
L 302.312103 101.143206 
L 308.523606 108.49996 
L 314.735108 114.218355 
L 320.946611 117.221929 
L 327.158114 118.204722 
L 333.369617 120.072126 
L 339.58112 127.413901 
L 345.792622 144.172765 
L 352.004125 168.348987 
L 358.215628 182.188306 
L 364.427131 135.828929 
" style="fill:none;stroke:#d62728;stroke-linecap:square;stroke-width:1.5;"/>
   </g>
   <g id="line2d_24">
    <path clip-path="url(#p2f12657833)" d="M 60.063494 110.671745 
L 66.274997 56.905679 
L 72.4865 95.908865 
L 78.698003 126.039182 
L 84.909505 125.04148 
L 91.121008 102.821202 
L 97.332511 76.428381 
L 103.544014 58.841903 
L 109.755517 55.718233 
L 115.967019 66.21214 
L 122.178522 85.409954 
L 128.390025 106.942134 
L 134.601528 125.049537 
L 140.81303 135.840915 
L 147.024533 137.759524 
L 153.236036 131.424805 
L 159.447539 119.071807 
L 165.659042 103.808357 
L 171.870544 88.87285 
L 178.082047 77.022287 
L 184.29355 70.123825 
L 190.505053 68.972356 
L 196.716556 73.316401 
L 202.928058 82.047234 
L 209.139561 93.49166 
L 215.351064 105.745902 
L 221.562567 116.994248 
L 227.774069 125.768682 
L 233.985572 131.121625 
L 240.197075 132.700566 
L 246.408578 130.728484 
L 252.620081 125.905793 
L 258.831583 119.257419 
L 265.043086 111.952073 
L 271.254589 105.120502 
L 277.466092 99.696303 
L 283.677595 96.298188 
L 289.889097 95.167562 
L 296.1006 96.170962 
L 302.312103 98.873379 
L 308.523606 102.684545 
L 314.735108 107.072884 
L 320.946611 111.825204 
L 327.158114 117.295371 
L 333.369617 124.518981 
L 339.58112 134.95508 
L 345.792622 149.426106 
L 352.004125 165.53195 
L 358.215628 172.373819 
L 364.427131 140.789389 
" style="fill:none;stroke:#9467bd;stroke-linecap:square;stroke-width:1.5;"/>
   </g>
   <g id="line2d_25">
    <path clip-path="url(#p2f12657833)" d="M 60.063494 101.278782 
L 66.274997 89.472531 
L 72.4865 75.261952 
L 78.698003 101.8946 
L 84.909505 126.945106 
L 91.121008 123.740661 
L 97.332511 95.920041 
L 103.544014 62.984501 
L 109.755517 43.72486 
L 115.967019 46.934002 
L 122.178522 70.054437 
L 128.390025 102.94186 
L 134.601528 133.381535 
L 140.81303 151.815982 
L 147.024533 153.970222 
L 153.236036 141.165439 
L 159.447539 118.85859 
L 165.659042 94.288679 
L 171.870544 74.112999 
L 178.082047 62.691557 
L 184.29355 61.347456 
L 190.505053 68.600977 
L 196.716556 81.121227 
L 202.928058 95.001677 
L 209.139561 106.952189 
L 215.351064 115.090179 
L 221.562567 119.169916 
L 227.774069 120.265735 
L 233.985572 120.077793 
L 240.197075 120.123247 
L 246.408578 121.091761 
L 252.620081 122.580886 
L 258.831583 123.301202 
L 265.043086 121.685195 
L 271.254589 116.689228 
L 277.466092 108.487342 
L 283.677595 98.753694 
L 289.889097 90.334145 
L 296.1006 86.307999 
L 302.312103 88.697338 
L 308.523606 97.320919 
L 314.735108 109.412807 
L 320.946611 120.522944 
L 327.158114 126.795018 
L 333.369617 127.944114 
L 339.58112 129.222281 
L 345.792622 139.660152 
L 352.004125 163.518269 
L 358.215628 183.239773 
L 364.427131 136.963672 
" style="fill:none;stroke:#8c564b;stroke-linecap:square;stroke-width:1.5;"/>
   </g>
   <g id="patch_3">
    <path d="M 44.845313 224.64 
L 44.845313 7.2 
" style="fill:none;stroke:#000000;stroke-linecap:square;stroke-linejoin:miter;stroke-width:0.8;"/>
   </g>
   <g id="patch_4">
    <path d="M 379.645313 224.64 
L 379.645313 7.2 
" style="fill:none;stroke:#000000;stroke-linecap:square;stroke-linejoin:miter;stroke-width:0.8;"/>
   </g>
   <g id="patch_5">
    <path d="M 44.845312 224.64 
L 379.645313 224.64 
" style="fill:none;stroke:#000000;stroke-linecap:square;stroke-linejoin:miter;stroke-width:0.8;"/>
   </g>
   <g id="patch_6">
    <path d="M 44.845312 7.2 
L 379.645313 7.2 
" style="fill:none;stroke:#000000;stroke-linecap:square;stroke-linejoin:miter;stroke-width:0.8;"/>
   </g>
   <g id="legend_1">
    <g id="patch_7">
     <path d="M 51.845313 219.64 
L 145.90625 219.64 
Q 147.90625 219.64 147.90625 217.64 
L 147.90625 115.893125 
Q 147.90625 113.893125 145.90625 113.893125 
L 51.845313 113.893125 
Q 49.845313 113.893125 49.845313 115.893125 
L 49.845313 217.64 
Q 49.845313 219.64 51.845313 219.64 
z
" style="fill:#ffffff;opacity:0.8;stroke:#cccccc;stroke-linejoin:miter;"/>
    </g>
    <g id="line2d_26"/>
    <g id="line2d_27">
     <g>
      <use style="fill:#ff0000;stroke:#ff0000;" x="63.845313" xlink:href="#m11fc32889d" y="121.991562"/>
     </g>
    </g>
    <g id="text_19">
     <!-- sample data -->
     <g transform="translate(81.845313 125.491562)scale(0.1 -0.1)">
      <defs>
       <path d="M 44.28125 53.078125 
L 44.28125 44.578125 
Q 40.484375 46.53125 36.375 47.5 
Q 32.28125 48.484375 27.875 48.484375 
Q 21.1875 48.484375 17.84375 46.4375 
Q 14.5 44.390625 14.5 40.28125 
Q 14.5 37.15625 16.890625 35.375 
Q 19.28125 33.59375 26.515625 31.984375 
L 29.59375 31.296875 
Q 39.15625 29.25 43.1875 25.515625 
Q 47.21875 21.78125 47.21875 15.09375 
Q 47.21875 7.46875 41.1875 3.015625 
Q 35.15625 -1.421875 24.609375 -1.421875 
Q 20.21875 -1.421875 15.453125 -0.5625 
Q 10.6875 0.296875 5.421875 2 
L 5.421875 11.28125 
Q 10.40625 8.6875 15.234375 7.390625 
Q 20.0625 6.109375 24.8125 6.109375 
Q 31.15625 6.109375 34.5625 8.28125 
Q 37.984375 10.453125 37.984375 14.40625 
Q 37.984375 18.0625 35.515625 20.015625 
Q 33.0625 21.96875 24.703125 23.78125 
L 21.578125 24.515625 
Q 13.234375 26.265625 9.515625 29.90625 
Q 5.8125 33.546875 5.8125 39.890625 
Q 5.8125 47.609375 11.28125 51.796875 
Q 16.75 56 26.8125 56 
Q 31.78125 56 36.171875 55.265625 
Q 40.578125 54.546875 44.28125 53.078125 
z
" id="DejaVuSans-115"/>
       <path d="M 34.28125 27.484375 
Q 23.390625 27.484375 19.1875 25 
Q 14.984375 22.515625 14.984375 16.5 
Q 14.984375 11.71875 18.140625 8.90625 
Q 21.296875 6.109375 26.703125 6.109375 
Q 34.1875 6.109375 38.703125 11.40625 
Q 43.21875 16.703125 43.21875 25.484375 
L 43.21875 27.484375 
z
M 52.203125 31.203125 
L 52.203125 0 
L 43.21875 0 
L 43.21875 8.296875 
Q 40.140625 3.328125 35.546875 0.953125 
Q 30.953125 -1.421875 24.3125 -1.421875 
Q 15.921875 -1.421875 10.953125 3.296875 
Q 6 8.015625 6 15.921875 
Q 6 25.140625 12.171875 29.828125 
Q 18.359375 34.515625 30.609375 34.515625 
L 43.21875 34.515625 
L 43.21875 35.40625 
Q 43.21875 41.609375 39.140625 45 
Q 35.0625 48.390625 27.6875 48.390625 
Q 23 48.390625 18.546875 47.265625 
Q 14.109375 46.140625 10.015625 43.890625 
L 10.015625 52.203125 
Q 14.9375 54.109375 19.578125 55.046875 
Q 24.21875 56 28.609375 56 
Q 40.484375 56 46.34375 49.84375 
Q 52.203125 43.703125 52.203125 31.203125 
z
" id="DejaVuSans-97"/>
       <path d="M 52 44.1875 
Q 55.375 50.25 60.0625 53.125 
Q 64.75 56 71.09375 56 
Q 79.640625 56 84.28125 50.015625 
Q 88.921875 44.046875 88.921875 33.015625 
L 88.921875 0 
L 79.890625 0 
L 79.890625 32.71875 
Q 79.890625 40.578125 77.09375 44.375 
Q 74.3125 48.1875 68.609375 48.1875 
Q 61.625 48.1875 57.5625 43.546875 
Q 53.515625 38.921875 53.515625 30.90625 
L 53.515625 0 
L 44.484375 0 
L 44.484375 32.71875 
Q 44.484375 40.625 41.703125 44.40625 
Q 38.921875 48.1875 33.109375 48.1875 
Q 26.21875 48.1875 22.15625 43.53125 
Q 18.109375 38.875 18.109375 30.90625 
L 18.109375 0 
L 9.078125 0 
L 9.078125 54.6875 
L 18.109375 54.6875 
L 18.109375 46.1875 
Q 21.1875 51.21875 25.484375 53.609375 
Q 29.78125 56 35.6875 56 
Q 41.65625 56 45.828125 52.96875 
Q 50 49.953125 52 44.1875 
z
" id="DejaVuSans-109"/>
       <path d="M 18.109375 8.203125 
L 18.109375 -20.796875 
L 9.078125 -20.796875 
L 9.078125 54.6875 
L 18.109375 54.6875 
L 18.109375 46.390625 
Q 20.953125 51.265625 25.265625 53.625 
Q 29.59375 56 35.59375 56 
Q 45.5625 56 51.78125 48.09375 
Q 58.015625 40.1875 58.015625 27.296875 
Q 58.015625 14.40625 51.78125 6.484375 
Q 45.5625 -1.421875 35.59375 -1.421875 
Q 29.59375 -1.421875 25.265625 0.953125 
Q 20.953125 3.328125 18.109375 8.203125 
z
M 48.6875 27.296875 
Q 48.6875 37.203125 44.609375 42.84375 
Q 40.53125 48.484375 33.40625 48.484375 
Q 26.265625 48.484375 22.1875 42.84375 
Q 18.109375 37.203125 18.109375 27.296875 
Q 18.109375 17.390625 22.1875 11.75 
Q 26.265625 6.109375 33.40625 6.109375 
Q 40.53125 6.109375 44.609375 11.75 
Q 48.6875 17.390625 48.6875 27.296875 
z
" id="DejaVuSans-112"/>
       <path d="M 9.421875 75.984375 
L 18.40625 75.984375 
L 18.40625 0 
L 9.421875 0 
z
" id="DejaVuSans-108"/>
       <path d="M 56.203125 29.59375 
L 56.203125 25.203125 
L 14.890625 25.203125 
Q 15.484375 15.921875 20.484375 11.0625 
Q 25.484375 6.203125 34.421875 6.203125 
Q 39.59375 6.203125 44.453125 7.46875 
Q 49.3125 8.734375 54.109375 11.28125 
L 54.109375 2.78125 
Q 49.265625 0.734375 44.1875 -0.34375 
Q 39.109375 -1.421875 33.890625 -1.421875 
Q 20.796875 -1.421875 13.15625 6.1875 
Q 5.515625 13.8125 5.515625 26.8125 
Q 5.515625 40.234375 12.765625 48.109375 
Q 20.015625 56 32.328125 56 
Q 43.359375 56 49.78125 48.890625 
Q 56.203125 41.796875 56.203125 29.59375 
z
M 47.21875 32.234375 
Q 47.125 39.59375 43.09375 43.984375 
Q 39.0625 48.390625 32.421875 48.390625 
Q 24.90625 48.390625 20.390625 44.140625 
Q 15.875 39.890625 15.1875 32.171875 
z
" id="DejaVuSans-101"/>
       <path id="DejaVuSans-32"/>
       <path d="M 45.40625 46.390625 
L 45.40625 75.984375 
L 54.390625 75.984375 
L 54.390625 0 
L 45.40625 0 
L 45.40625 8.203125 
Q 42.578125 3.328125 38.25 0.953125 
Q 33.9375 -1.421875 27.875 -1.421875 
Q 17.96875 -1.421875 11.734375 6.484375 
Q 5.515625 14.40625 5.515625 27.296875 
Q 5.515625 40.1875 11.734375 48.09375 
Q 17.96875 56 27.875 56 
Q 33.9375 56 38.25 53.625 
Q 42.578125 51.265625 45.40625 46.390625 
z
M 14.796875 27.296875 
Q 14.796875 17.390625 18.875 11.75 
Q 22.953125 6.109375 30.078125 6.109375 
Q 37.203125 6.109375 41.296875 11.75 
Q 45.40625 17.390625 45.40625 27.296875 
Q 45.40625 37.203125 41.296875 42.84375 
Q 37.203125 48.484375 30.078125 48.484375 
Q 22.953125 48.484375 18.875 42.84375 
Q 14.796875 37.203125 14.796875 27.296875 
z
" id="DejaVuSans-100"/>
       <path d="M 18.3125 70.21875 
L 18.3125 54.6875 
L 36.8125 54.6875 
L 36.8125 47.703125 
L 18.3125 47.703125 
L 18.3125 18.015625 
Q 18.3125 11.328125 20.140625 9.421875 
Q 21.96875 7.515625 27.59375 7.515625 
L 36.8125 7.515625 
L 36.8125 0 
L 27.59375 0 
Q 17.1875 0 13.234375 3.875 
Q 9.28125 7.765625 9.28125 18.015625 
L 9.28125 47.703125 
L 2.6875 47.703125 
L 2.6875 54.6875 
L 9.28125 54.6875 
L 9.28125 70.21875 
z
" id="DejaVuSans-116"/>
      </defs>
      <use xlink:href="#DejaVuSans-115"/>
      <use x="52.099609" xlink:href="#DejaVuSans-97"/>
      <use x="113.378906" xlink:href="#DejaVuSans-109"/>
      <use x="210.791016" xlink:href="#DejaVuSans-112"/>
      <use x="274.267578" xlink:href="#DejaVuSans-108"/>
      <use x="302.050781" xlink:href="#DejaVuSans-101"/>
      <use x="363.574219" xlink:href="#DejaVuSans-32"/>
      <use x="395.361328" xlink:href="#DejaVuSans-100"/>
      <use x="458.837891" xlink:href="#DejaVuSans-97"/>
      <use x="520.117188" xlink:href="#DejaVuSans-116"/>
      <use x="559.326172" xlink:href="#DejaVuSans-97"/>
     </g>
    </g>
    <g id="line2d_28">
     <path d="M 53.845313 136.669688 
L 73.845313 136.669688 
" style="fill:none;stroke:#1f77b4;stroke-linecap:square;stroke-width:1.5;"/>
    </g>
    <g id="line2d_29"/>
    <g id="text_20">
     <!-- deg=1 -->
     <g transform="translate(81.845313 140.169688)scale(0.1 -0.1)">
      <defs>
       <path d="M 45.40625 27.984375 
Q 45.40625 37.75 41.375 43.109375 
Q 37.359375 48.484375 30.078125 48.484375 
Q 22.859375 48.484375 18.828125 43.109375 
Q 14.796875 37.75 14.796875 27.984375 
Q 14.796875 18.265625 18.828125 12.890625 
Q 22.859375 7.515625 30.078125 7.515625 
Q 37.359375 7.515625 41.375 12.890625 
Q 45.40625 18.265625 45.40625 27.984375 
z
M 54.390625 6.78125 
Q 54.390625 -7.171875 48.1875 -13.984375 
Q 42 -20.796875 29.203125 -20.796875 
Q 24.46875 -20.796875 20.265625 -20.09375 
Q 16.0625 -19.390625 12.109375 -17.921875 
L 12.109375 -9.1875 
Q 16.0625 -11.328125 19.921875 -12.34375 
Q 23.78125 -13.375 27.78125 -13.375 
Q 36.625 -13.375 41.015625 -8.765625 
Q 45.40625 -4.15625 45.40625 5.171875 
L 45.40625 9.625 
Q 42.625 4.78125 38.28125 2.390625 
Q 33.9375 0 27.875 0 
Q 17.828125 0 11.671875 7.65625 
Q 5.515625 15.328125 5.515625 27.984375 
Q 5.515625 40.671875 11.671875 48.328125 
Q 17.828125 56 27.875 56 
Q 33.9375 56 38.28125 53.609375 
Q 42.625 51.21875 45.40625 46.390625 
L 45.40625 54.6875 
L 54.390625 54.6875 
z
" id="DejaVuSans-103"/>
       <path d="M 10.59375 45.40625 
L 73.1875 45.40625 
L 73.1875 37.203125 
L 10.59375 37.203125 
z
M 10.59375 25.484375 
L 73.1875 25.484375 
L 73.1875 17.1875 
L 10.59375 17.1875 
z
" id="DejaVuSans-61"/>
      </defs>
      <use xlink:href="#DejaVuSans-100"/>
      <use x="63.476562" xlink:href="#DejaVuSans-101"/>
      <use x="125" xlink:href="#DejaVuSans-103"/>
      <use x="188.476562" xlink:href="#DejaVuSans-61"/>
      <use x="272.265625" xlink:href="#DejaVuSans-49"/>
     </g>
    </g>
    <g id="line2d_30">
     <path d="M 53.845313 151.347812 
L 73.845313 151.347812 
" style="fill:none;stroke:#ff7f0e;stroke-linecap:square;stroke-width:1.5;"/>
    </g>
    <g id="line2d_31"/>
    <g id="text_21">
     <!-- deg=5 -->
     <g transform="translate(81.845313 154.847812)scale(0.1 -0.1)">
      <use xlink:href="#DejaVuSans-100"/>
      <use x="63.476562" xlink:href="#DejaVuSans-101"/>
      <use x="125" xlink:href="#DejaVuSans-103"/>
      <use x="188.476562" xlink:href="#DejaVuSans-61"/>
      <use x="272.265625" xlink:href="#DejaVuSans-53"/>
     </g>
    </g>
    <g id="line2d_32">
     <path d="M 53.845313 166.025937 
L 73.845313 166.025937 
" style="fill:none;stroke:#2ca02c;stroke-linecap:square;stroke-width:1.5;"/>
    </g>
    <g id="line2d_33"/>
    <g id="text_22">
     <!-- deg=9 -->
     <g transform="translate(81.845313 169.525937)scale(0.1 -0.1)">
      <defs>
       <path d="M 10.984375 1.515625 
L 10.984375 10.5 
Q 14.703125 8.734375 18.5 7.8125 
Q 22.3125 6.890625 25.984375 6.890625 
Q 35.75 6.890625 40.890625 13.453125 
Q 46.046875 20.015625 46.78125 33.40625 
Q 43.953125 29.203125 39.59375 26.953125 
Q 35.25 24.703125 29.984375 24.703125 
Q 19.046875 24.703125 12.671875 31.3125 
Q 6.296875 37.9375 6.296875 49.421875 
Q 6.296875 60.640625 12.9375 67.421875 
Q 19.578125 74.21875 30.609375 74.21875 
Q 43.265625 74.21875 49.921875 64.515625 
Q 56.59375 54.828125 56.59375 36.375 
Q 56.59375 19.140625 48.40625 8.859375 
Q 40.234375 -1.421875 26.421875 -1.421875 
Q 22.703125 -1.421875 18.890625 -0.6875 
Q 15.09375 0.046875 10.984375 1.515625 
z
M 30.609375 32.421875 
Q 37.25 32.421875 41.125 36.953125 
Q 45.015625 41.5 45.015625 49.421875 
Q 45.015625 57.28125 41.125 61.84375 
Q 37.25 66.40625 30.609375 66.40625 
Q 23.96875 66.40625 20.09375 61.84375 
Q 16.21875 57.28125 16.21875 49.421875 
Q 16.21875 41.5 20.09375 36.953125 
Q 23.96875 32.421875 30.609375 32.421875 
z
" id="DejaVuSans-57"/>
      </defs>
      <use xlink:href="#DejaVuSans-100"/>
      <use x="63.476562" xlink:href="#DejaVuSans-101"/>
      <use x="125" xlink:href="#DejaVuSans-103"/>
      <use x="188.476562" xlink:href="#DejaVuSans-61"/>
      <use x="272.265625" xlink:href="#DejaVuSans-57"/>
     </g>
    </g>
    <g id="line2d_34">
     <path d="M 53.845313 180.704062 
L 73.845313 180.704062 
" style="fill:none;stroke:#d62728;stroke-linecap:square;stroke-width:1.5;"/>
    </g>
    <g id="line2d_35"/>
    <g id="text_23">
     <!-- deg=11 -->
     <g transform="translate(81.845313 184.204062)scale(0.1 -0.1)">
      <use xlink:href="#DejaVuSans-100"/>
      <use x="63.476562" xlink:href="#DejaVuSans-101"/>
      <use x="125" xlink:href="#DejaVuSans-103"/>
      <use x="188.476562" xlink:href="#DejaVuSans-61"/>
      <use x="272.265625" xlink:href="#DejaVuSans-49"/>
      <use x="335.888672" xlink:href="#DejaVuSans-49"/>
     </g>
    </g>
    <g id="line2d_36">
     <path d="M 53.845313 195.382187 
L 73.845313 195.382187 
" style="fill:none;stroke:#9467bd;stroke-linecap:square;stroke-width:1.5;"/>
    </g>
    <g id="line2d_37"/>
    <g id="text_24">
     <!-- deg=13 -->
     <g transform="translate(81.845313 198.882187)scale(0.1 -0.1)">
      <defs>
       <path d="M 40.578125 39.3125 
Q 47.65625 37.796875 51.625 33 
Q 55.609375 28.21875 55.609375 21.1875 
Q 55.609375 10.40625 48.1875 4.484375 
Q 40.765625 -1.421875 27.09375 -1.421875 
Q 22.515625 -1.421875 17.65625 -0.515625 
Q 12.796875 0.390625 7.625 2.203125 
L 7.625 11.71875 
Q 11.71875 9.328125 16.59375 8.109375 
Q 21.484375 6.890625 26.8125 6.890625 
Q 36.078125 6.890625 40.9375 10.546875 
Q 45.796875 14.203125 45.796875 21.1875 
Q 45.796875 27.640625 41.28125 31.265625 
Q 36.765625 34.90625 28.71875 34.90625 
L 20.21875 34.90625 
L 20.21875 43.015625 
L 29.109375 43.015625 
Q 36.375 43.015625 40.234375 45.921875 
Q 44.09375 48.828125 44.09375 54.296875 
Q 44.09375 59.90625 40.109375 62.90625 
Q 36.140625 65.921875 28.71875 65.921875 
Q 24.65625 65.921875 20.015625 65.03125 
Q 15.375 64.15625 9.8125 62.3125 
L 9.8125 71.09375 
Q 15.4375 72.65625 20.34375 73.4375 
Q 25.25 74.21875 29.59375 74.21875 
Q 40.828125 74.21875 47.359375 69.109375 
Q 53.90625 64.015625 53.90625 55.328125 
Q 53.90625 49.265625 50.4375 45.09375 
Q 46.96875 40.921875 40.578125 39.3125 
z
" id="DejaVuSans-51"/>
      </defs>
      <use xlink:href="#DejaVuSans-100"/>
      <use x="63.476562" xlink:href="#DejaVuSans-101"/>
      <use x="125" xlink:href="#DejaVuSans-103"/>
      <use x="188.476562" xlink:href="#DejaVuSans-61"/>
      <use x="272.265625" xlink:href="#DejaVuSans-49"/>
      <use x="335.888672" xlink:href="#DejaVuSans-51"/>
     </g>
    </g>
    <g id="line2d_38">
     <path d="M 53.845313 210.060312 
L 73.845313 210.060312 
" style="fill:none;stroke:#8c564b;stroke-linecap:square;stroke-width:1.5;"/>
    </g>
    <g id="line2d_39"/>
    <g id="text_25">
     <!-- deg=15 -->
     <g transform="translate(81.845313 213.560312)scale(0.1 -0.1)">
      <use xlink:href="#DejaVuSans-100"/>
      <use x="63.476562" xlink:href="#DejaVuSans-101"/>
      <use x="125" xlink:href="#DejaVuSans-103"/>
      <use x="188.476562" xlink:href="#DejaVuSans-61"/>
      <use x="272.265625" xlink:href="#DejaVuSans-49"/>
      <use x="335.888672" xlink:href="#DejaVuSans-53"/>
     </g>
    </g>
   </g>
  </g>
 </g>
 <defs>
  <clipPath id="p2f12657833">
   <rect height="217.44" width="334.8" x="44.845313" y="7.2"/>
  </clipPath>
 </defs>
</svg>
